<?xml version="1.0" encoding="UTF-8"?>
<svg version="1.1" xmlns="http://www.w3.org/2000/svg" width="895" height="195">
<path d="M0 0 C5.22998676 3.64882797 8.20194676 7.33862527 9.47265625 13.66796875 C10.15308092 20.65778577 8.79951138 26.65097724 5.6875 32.875 C5.3575 32.875 5.0275 32.875 4.6875 32.875 C4.72230469 31.10382812 4.72230469 31.10382812 4.7578125 29.296875 C4.77657497 27.73958967 4.79477466 26.18229748 4.8125 24.625 C4.82925781 23.84769531 4.84601563 23.07039063 4.86328125 22.26953125 C5.03391914 16.72877963 5.03391914 16.72877963 2.6875 11.875 C-1.78279589 9.06509973 -6.54511711 8.5820898 -11.6875 9.3125 C-37.73418323 15.2981584 -55.59306585 41.31128054 -68.9375 62.5625 C-77.5075283 76.66528603 -85.39309452 91.17932184 -93.34802246 105.63464355 C-95.70654076 109.91855157 -98.07042858 114.19949508 -100.43603516 118.47949219 C-101.62467985 120.63037306 -102.81201771 122.78197709 -103.99755859 124.93457031 C-109.17845709 134.31441936 -114.50905502 143.505693 -120.625 152.3125 C-121.09260742 152.99280273 -121.56021484 153.67310547 -122.04199219 154.37402344 C-125.95935859 159.85059566 -130.41084628 165.56968928 -137.3125 166.875 C-136.4375 162.125 -136.4375 162.125 -135.3125 159.875 C-133.77069355 143.76152766 -135.183379 125.262363 -140.3125 109.875 C-140.95574219 110.83277344 -141.59898437 111.79054688 -142.26171875 112.77734375 C-148.7706503 122.39658681 -155.60780402 131.69746901 -162.74560547 140.85839844 C-164.22724015 142.76527012 -165.69539084 144.68171936 -167.16015625 146.6015625 C-189.74449391 176.03134917 -189.74449391 176.03134917 -199.875 178.875 C-200.679375 178.875 -201.48375 178.875 -202.3125 178.875 C-204.3874667 170.34458135 -201.59388433 163.59848699 -198.65841675 155.66543579 C-197.2215175 151.77483371 -195.84992327 147.86124344 -194.47265625 143.94921875 C-194.19756729 143.17192917 -193.92247833 142.39463959 -193.63905334 141.59379578 C-189.97366466 131.1739932 -187.00076429 120.58676277 -184.3125 109.875 C-184.12333008 109.15505859 -183.93416016 108.43511719 -183.73925781 107.69335938 C-181.41671122 98.6774547 -181.02563504 89.8948472 -180.9375 80.625 C-180.92340088 79.54742432 -180.90930176 78.46984863 -180.89477539 77.35961914 C-180.95206735 67.8904916 -182.39473315 58.61809492 -186.9375 50.1875 C-187.36289063 49.37925781 -187.78828125 48.57101563 -188.2265625 47.73828125 C-189.17702195 45.92552087 -189.17702195 45.92552087 -190.3125 44.875 C-190.2810791 46.82829224 -190.2810791 46.82829224 -190.24902344 48.82104492 C-189.55173434 96.44934208 -193.40258928 142.07258143 -216.3125 184.875 C-216.6425 185.535 -216.9725 186.195 -217.3125 186.875 C-218.6325 186.545 -219.9525 186.215 -221.3125 185.875 C-216.66859552 170.08049852 -211.94204121 154.316849 -207.07421875 138.58984375 C-206.77555908 137.62022705 -206.47689941 136.65061035 -206.16918945 135.65161133 C-205.62553598 133.88957915 -205.07769042 132.12883057 -204.52416992 130.36987305 C-196.17373803 103.40137252 -191.74764525 75.3965391 -195.375 47.25 C-195.45903076 46.45029785 -195.54306152 45.6505957 -195.62963867 44.82666016 C-195.9438591 42.29129364 -195.9438591 42.29129364 -197.3125 38.875 C-204.81017829 34.10375018 -214.99075314 34.77259128 -223.48046875 36.53125 C-230.09982333 38.69724473 -235.15079894 42.2737122 -240.3125 46.875 C-240.91707031 47.37515625 -241.52164063 47.8753125 -242.14453125 48.390625 C-252.08930088 57.2803062 -257.49589376 70.40650238 -258.62109375 83.453125 C-258.85661786 90.16199357 -259.00129159 96.63303637 -254.3125 101.875 C-250.20220011 105.05775434 -245.76938361 106.56769452 -240.51171875 106.2578125 C-226.92597513 103.89297613 -218.95625841 95.99940221 -210.3125 85.875 C-209.3225 86.37 -209.3225 86.37 -208.3125 86.875 C-211.81862129 97.68554065 -222.81456985 104.34439765 -232.34375 109.4140625 C-238.83792276 112.60987909 -245.18368003 112.57761902 -252.3125 111.875 C-257.43690021 109.98953366 -261.53372211 106.5775472 -264.3125 101.875 C-268.76350325 89.00801935 -266.02601821 75.83111966 -260.734375 63.70703125 C-257.63263255 57.52911016 -253.36761897 52.56023222 -248.3125 47.875 C-247.83554688 47.41609375 -247.35859375 46.9571875 -246.8671875 46.484375 C-233.898359 34.58061937 -218.32341931 30.83978703 -201.3125 28.875 C-201.3125 28.215 -201.3125 27.555 -201.3125 26.875 C-201.8075 26.38 -202.3025 25.885 -202.8125 25.375 C-203.3075 24.88 -203.8025 24.385 -204.3125 23.875 C-204.3125 23.215 -204.3125 22.555 -204.3125 21.875 C-207.59463388 17.63557707 -211.3828261 16.51822463 -216.3125 14.875 C-216.3125 13.555 -216.3125 12.235 -216.3125 10.875 C-213.37475304 9.58239134 -212.07532007 9.94527554 -208.9375 10.875 C-203.64531717 13.41931867 -200.2602719 17.2755962 -198.25 22.7890625 C-197.899375 23.82804687 -197.54875 24.86703125 -197.1875 25.9375 C-195.21591732 31.08409894 -193.43356503 32.87588782 -188.4375 35.1875 C-186.86162109 35.85265625 -186.86162109 35.85265625 -185.25390625 36.53125 C-177.81771431 39.92839479 -173.50871329 46.57804916 -170.3125 53.875 C-167.43648717 62.55851901 -166.79820664 70.90149906 -166.875 80 C-166.88329834 81.27609131 -166.89159668 82.55218262 -166.90014648 83.86694336 C-167.34361768 108.79128735 -176.91653673 131.14704361 -188.25 153 C-189.562012 155.5536645 -190.87037711 158.10911619 -192.17469788 160.66671753 C-192.97639343 162.23634884 -193.78301752 163.80347533 -194.59519958 165.3677063 C-196.60373578 168.93552493 -196.60373578 168.93552493 -197.3125 172.875 C-176.67871552 163.68358691 -161.11361594 134.77595463 -149.41601562 116.53759766 C-148.3815101 114.97897318 -147.26336702 113.476785 -146.140625 111.98046875 C-140.6552666 104.13640624 -140.83977807 97.63862343 -141.19140625 88.45703125 C-141.40213877 82.36544208 -140.96511093 76.37931718 -140.4375 70.3125 C-140.35846436 69.33829102 -140.27942871 68.36408203 -140.19799805 67.36035156 C-138.82812522 51.8324791 -135.74500696 38.04983937 -123.5 27.4375 C-119.93270561 25.68882628 -118.07985969 25.60350445 -114.2421875 26.02734375 C-111.25901361 27.33776629 -110.04603856 29.15409818 -108.3125 31.875 C-104.76360704 49.08943534 -115.44756843 67.04603678 -123.14916992 81.64355469 C-123.53306885 82.37993164 -123.91696777 83.11630859 -124.3125 83.875 C-124.86631348 84.81770752 -125.42012695 85.76041504 -125.99072266 86.73168945 C-127.57202823 90.49218249 -127.37917102 92.49695121 -126.73046875 96.49609375 C-126.54033203 97.76259766 -126.35019531 99.02910156 -126.15429688 100.33398438 C-125.93770866 101.66040382 -125.71960553 102.98657677 -125.5 104.3125 C-123.37450941 117.60854995 -122.30826563 130.41933921 -124.3125 143.8125 C-124.40789062 144.50794922 -124.50328125 145.20339844 -124.6015625 145.91992188 C-124.82955656 147.57287881 -125.06954042 149.2241764 -125.3125 150.875 C-121.96987065 146.91608378 -119.30950185 142.77849026 -116.70703125 138.3203125 C-116.05780449 137.21153244 -116.05780449 137.21153244 -115.39546204 136.08035278 C-110.72689615 128.00805285 -106.51587359 119.71314981 -102.32723999 111.38473511 C-39.4655843 -13.40340599 -39.4655843 -13.40340599 0 0 Z M-122.875 30.3125 C-130.27324245 38.0901395 -129.49429877 50.60223245 -129.5 60.625 C-129.51224609 61.77355469 -129.52449219 62.92210937 -129.53710938 64.10546875 C-129.53904297 65.19988281 -129.54097656 66.29429688 -129.54296875 67.421875 C-129.54707764 68.42057617 -129.55118652 69.41927734 -129.55541992 70.44824219 C-129.55297221 73.05663492 -129.55297221 73.05663492 -127.3125 74.875 C-123.49100396 70.66630392 -121.6533433 66.36144985 -119.6875 61.125 C-119.3884375 60.36445312 -119.089375 59.60390625 -118.78125 58.8203125 C-116.06577552 51.73124196 -114.01816649 44.64752986 -114.0625 37 C-114.05476562 35.64261719 -114.05476562 35.64261719 -114.046875 34.2578125 C-114.15742038 31.61025755 -114.15742038 31.61025755 -116.3125 28.875 C-120.22076544 28.54883268 -120.22076544 28.54883268 -122.875 30.3125 Z M-127.3125 152.875 C-127.3125 153.865 -127.3125 154.855 -127.3125 155.875 C-126.6525 154.885 -125.9925 153.895 -125.3125 152.875 C-125.9725 152.875 -126.6325 152.875 -127.3125 152.875 Z M-129.3125 155.875 C-128.3125 157.875 -128.3125 157.875 -128.3125 157.875 Z " fill="#E6E6E6" transform="translate(308.3125,8.125)"/>
<path d="M0 0 C0.66 0 1.32 0 2 0 C3.23060421 2.46120841 3.2057723 4.25776866 3.31640625 7.0078125 C3.35830078 7.99394531 3.40019531 8.98007812 3.44335938 9.99609375 C3.48267578 11.02863281 3.52199219 12.06117187 3.5625 13.125 C3.60568359 14.16527344 3.64886719 15.20554687 3.69335938 16.27734375 C3.7996288 18.85142528 3.90166583 21.42560508 4 24 C5.07636719 23.97679688 6.15273438 23.95359375 7.26171875 23.9296875 C16.41998738 23.79502255 24.98070578 24.24319834 34 26 C34.268125 25.40960938 34.53625 24.81921875 34.8125 24.2109375 C39.000362 16.41379969 47.77714758 10.74095081 56 8 C63.91457251 7.38654521 71.48845345 6.90257719 78 12 C82.59927204 16.96237247 84.25663691 20.19912195 84 27 C83.34 27 82.68 27 82 27 C80.88671875 25.35546875 80.88671875 25.35546875 79.6875 23.1875 C77.15645216 18.97404978 74.80056504 17.06228329 70.1875 15.3125 C62.03244508 14.14749215 56.96069537 15.60628491 50 20 C48.00036804 21.57465425 46.61752632 23.00505087 45 25 C45 25.66 45 26.32 45 27 C46.09957031 27.36351563 47.19914063 27.72703125 48.33203125 28.1015625 C67.25905355 34.48136124 84.83601683 43.64610023 94.375 62.125 C100.96441626 75.70876871 101.21328829 92.45398411 96.38671875 106.73046875 C88.85478071 124.48886915 76.45584349 139.05408819 58.43359375 146.6796875 C57.30050781 147.11539063 56.16742187 147.55109375 55 148 C53.93910156 148.41507813 52.87820313 148.83015625 51.78515625 149.2578125 C30.41893409 156.25751415 6.04744637 152.62014874 -14.51953125 144.63671875 C-17.49580603 143.8727301 -19.09938811 143.99898626 -22 145 C-24.13741883 146.66249737 -24.13741883 146.66249737 -26.125 148.75 C-37.2333246 159.04642048 -51.00272942 160.63463895 -65.5234375 160.3046875 C-75.19016916 159.82274497 -81.49836663 154.9323834 -88 148 C-90.9680852 143.59284319 -91.56566709 140.27955946 -91 135 C-89.25615027 130.31914021 -87.18025185 127.72202446 -83 125 C-68.23303811 119.06760779 -51.5517872 124.39274037 -37.66015625 130.265625 C-36.83837891 130.62914062 -36.83837891 130.62914062 -36 131 C-35.76539063 130.48695313 -35.53078125 129.97390625 -35.2890625 129.4453125 C-33.90214092 126.81436428 -32.30516258 124.36242295 -30.67529297 121.87695312 C-14.05190913 96.28330921 -0.93830024 60.7892929 -2 30 C-3.01889463 28.74754378 -3.01889463 28.74754378 -5.16015625 28.98046875 C-24.5755295 30.36541462 -45.55876396 36.37902561 -59.0078125 51.21484375 C-60.46142122 53.10032173 -61.7828918 54.95543335 -63 57 C-63.36996094 57.6084375 -63.73992187 58.216875 -64.12109375 58.84375 C-66.3310703 64.26555913 -65.87735261 71.12092056 -64.1953125 76.640625 C-60.67284686 83.78272774 -55.03132503 87.44464503 -47.75 90.25390625 C-44.84835518 91.23594878 -41.94364476 92.15326631 -39 93 C-39.495 94.485 -39.495 94.485 -40 96 C-52.33484003 94.6162075 -62.12078922 89.71460341 -70 80 C-74.33669238 74.34878614 -74.73568148 68.4668666 -74.50390625 61.46875 C-73.28595082 53.08468471 -68.02564431 47.2072641 -61.6640625 41.94140625 C-43.57363967 28.75820955 -22.20965305 23.23414989 0 24 C0 16.08 0 8.16 0 0 Z M4.32885742 29.265625 C2.75652327 31.31777671 2.5024119 32.55755077 2.2265625 35.11328125 C2.12706299 35.93739502 2.02756348 36.76150879 1.92504883 37.6105957 C1.77652466 38.94803833 1.77652466 38.94803833 1.625 40.3125 C-2.41070576 71.63314479 -11.54148809 103.05448964 -30 129 C-30.495 129.99 -30.495 129.99 -31 131 C-30.67 131.99 -30.34 132.98 -30 134 C-27.98491642 134.73323796 -27.98491642 134.73323796 -26 135 C-21.52980203 129.28147546 -17.55225585 123.5152408 -14.171875 117.08984375 C-13.82948792 116.44284515 -13.48710083 115.79584656 -13.13433838 115.12924194 C-9.72159865 108.59937346 -6.66748803 101.92119819 -3.67141724 95.19229126 C-2.06912739 91.59739456 -0.44614053 88.01185323 1.17578125 84.42578125 C1.49922012 83.71006454 1.822659 82.99434784 2.15589905 82.25694275 C19.68526937 43.53808395 19.68526937 43.53808395 30 30 C24.569322 28.189774 19.39372347 27.75414951 13.6875 27.6875 C12.98173828 27.67009766 12.27597656 27.65269531 11.54882812 27.63476562 C7.6827693 27.58141265 7.6827693 27.58141265 4.32885742 29.265625 Z M40 31 C32.48021938 41.51060245 26.63008763 52.74422892 22.21484375 64.875 C20.55795454 69.13709444 18.48041476 73.13449152 16.38671875 77.1953125 C15.18334608 79.6291761 14.18741656 82.01871233 13.25 84.5625 C10.28767709 92.23985353 6.14841827 99.40192185 2.26074219 106.63867188 C1.1078862 108.79793275 -0.02508148 110.96590939 -1.1484375 113.140625 C-4.86904804 120.3047697 -8.85403 126.98575367 -13.62890625 133.51171875 C-15.18592773 135.84878696 -15.18592773 135.84878696 -14.9609375 138.20703125 C-12.87147032 142.10567122 -7.97734652 142.77764764 -4 144 C15.62936907 149.83930794 36.89054966 150.96672404 55.5625 141.5625 C69.75233514 133.86225126 79.42830731 121.51873904 84.375 106.1875 C85.59402783 101.7958741 86.66242622 97.55724604 87 93 C87.06316406 92.24074219 87.12632812 91.48148438 87.19140625 90.69921875 C87.94055825 74.38703806 81.70582168 60.40255517 71.25 48.1875 C62.79139204 39.29314557 52.12450921 33.18498223 40 31 Z M-84.875 130.6875 C-86.54360509 134.11741047 -86.64117007 137.30971006 -86 141 C-83.74126288 145.35016037 -81.09194721 148.30530306 -77 151 C-74.31492671 151.78946609 -74.31492671 151.78946609 -72 152 C-71.67 151.01 -71.34 150.02 -71 149 C-70.31035156 148.97421875 -69.62070312 148.9484375 -68.91015625 148.921875 C-57.53028408 148.23502401 -49.66093334 144.01292398 -41.2734375 136.44140625 C-39.77930276 135.07075158 -39.77930276 135.07075158 -40 133 C-42.5607445 132.01602415 -45.12341492 131.03770033 -47.6875 130.0625 C-48.40873047 129.78470703 -49.12996094 129.50691406 -49.87304688 129.22070312 C-56.33065116 126.77330059 -62.00052293 125.80152815 -68.9375 125.75 C-69.62779297 125.729375 -70.31808594 125.70875 -71.02929688 125.6875 C-76.6471887 125.64489987 -80.68334998 126.91501498 -84.875 130.6875 Z M-37.6484375 137.390625 C-38.21820313 138.00421875 -38.78796875 138.6178125 -39.375 139.25 C-44.13899775 144.20336168 -48.9989254 147.70529237 -55 151 C-55 151.66 -55 152.32 -55 153 C-49.65325125 152.48036713 -45.73358554 151.20598829 -40.875 148.75 C-39.10769531 147.87601563 -39.10769531 147.87601563 -37.3046875 146.984375 C-33.95859032 144.97513462 -31.55000775 142.94453725 -29 140 C-29 139.34 -29 138.68 -29 138 C-33.35280947 135.52368637 -33.35280947 135.52368637 -37.6484375 137.390625 Z M-67 153 C-67 153.33 -67 153.66 -67 154 C-64.69 154 -62.38 154 -60 154 C-60 153.67 -60 153.34 -60 153 C-62.31 153 -64.62 153 -67 153 Z " fill="#E6E6E6" transform="translate(484,16)"/>
<path d="M0 0 C0.81469271 2.33427597 1.12852318 3.60422635 0.35424805 5.98852539 C-0.00628662 6.68453857 -0.36682129 7.38055176 -0.73828125 8.09765625 C-1.34216675 9.28415771 -1.34216675 9.28415771 -1.95825195 10.49462891 C-2.62860474 11.7657251 -2.62860474 11.7657251 -3.3125 13.0625 C-3.99928833 14.39933838 -3.99928833 14.39933838 -4.69995117 15.76318359 C-6.11932571 18.51633735 -7.55624716 21.25956169 -9 24 C-9.4125 24.78391113 -9.825 25.56782227 -10.25 26.37548828 C-11.83866813 29.39016896 -13.43019035 32.40332128 -15.02539062 35.41455078 C-18.70367647 42.38069788 -22.27355282 49.39965596 -25.8125 56.4375 C-26.35173096 57.50307129 -26.89096191 58.56864258 -27.4465332 59.66650391 C-30.94747641 66.65969637 -34.08736192 73.7423454 -37 81 C-35.54980469 80.25943359 -35.54980469 80.25943359 -34.0703125 79.50390625 C-19.43979396 72.22442302 -19.43979396 72.22442302 -12 73 C-8.27796729 74.55084696 -7.24850851 75.62723724 -5 79 C-2.47242443 89.73744509 -5.13992112 101.27984224 -10 111 C-8.02 111.99 -8.02 111.99 -6 113 C-6 113.66 -6 114.32 -6 115 C-8.64 115 -11.28 115 -14 115 C-14.22429687 115.70382813 -14.44859375 116.40765625 -14.6796875 117.1328125 C-16.28220287 120.6128311 -18.51903285 123.12775343 -21.125 125.875 C-21.6207251 126.4023877 -22.1164502 126.92977539 -22.62719727 127.47314453 C-33.98627375 139.43296791 -45.20886467 146.33400545 -62 147 C-64.4375 146.53515625 -64.4375 146.53515625 -66 146 C-66.33 148.31 -66.66 150.62 -67 153 C-67.99 153 -68.98 153 -70 153 C-71 148 -71 148 -71.375 145.5 C-71.88018016 142.88368366 -71.88018016 142.88368366 -73.625 140.5625 C-75 138 -75 138 -75 135.0625 C-73.29072904 129.82785767 -69.65877446 125.89165311 -65 123 C-64.34 123 -63.68 123 -63 123 C-62.89042969 122.45472656 -62.78085937 121.90945312 -62.66796875 121.34765625 C-61.48990063 115.74464935 -59.912965 110.3945613 -58 105 C-58.59748047 105.75796875 -58.59748047 105.75796875 -59.20703125 106.53125 C-60.00173828 107.50578125 -60.00173828 107.50578125 -60.8125 108.5 C-61.59560547 109.47453125 -61.59560547 109.47453125 -62.39453125 110.46875 C-64 112 -64 112 -67 112 C-66.40623765 108.52996031 -65.16544498 106.71168124 -62.8125 104.125 C-62.24144531 103.48820312 -61.67039062 102.85140625 -61.08203125 102.1953125 C-59 100 -59 100 -56.09765625 97.53125 C-51.62779122 93.05789779 -49.86059531 87.17220549 -47.625 81.375 C-46.58474689 78.75928863 -45.53091821 76.14911625 -44.4765625 73.5390625 C-44.20104553 72.85376465 -43.92552856 72.1684668 -43.6416626 71.46240234 C-40.28087972 63.14352364 -36.65361969 54.94359352 -33 46.75 C-32.49253738 45.61158157 -32.49253738 45.61158157 -31.974823 44.45016479 C-27.48477788 34.39620197 -22.914275 24.38256396 -18.1875 14.4375 C-17.70216797 13.40915039 -17.21683594 12.38080078 -16.71679688 11.32128906 C-16.26755859 10.38897461 -15.81832031 9.45666016 -15.35546875 8.49609375 C-14.97028076 7.69357178 -14.58509277 6.8910498 -14.18823242 6.06420898 C-10.69999235 0.00440422 -6.68099155 -0.12605644 0 0 Z M-43.76806641 92.10888672 C-46.33617579 96.05113312 -48.0293899 100.41238442 -49.8125 104.75 C-50.21919922 105.70777344 -50.62589844 106.66554688 -51.04492188 107.65234375 C-53.16817902 112.17872943 -53.16817902 112.17872943 -54 117 C-53.42459473 116.87447754 -52.84918945 116.74895508 -52.25634766 116.61962891 C-45.33122682 115.16553169 -38.39868763 114.21135649 -31.375 113.375 C-30.27542969 113.2409375 -29.17585938 113.106875 -28.04296875 112.96875 C-25.36237342 112.64241665 -22.68140902 112.31956606 -20 112 C-16.27135555 98.13139621 -16.27135555 98.13139621 -18.5 84.375 C-18.995 83.59125 -19.49 82.8075 -20 82 C-29.55770246 81.05989812 -37.7035187 84.43571832 -43.76806641 92.10888672 Z M-39.3125 118.1875 C-40.42854614 118.52914185 -40.42854614 118.52914185 -41.56713867 118.87768555 C-52.78773588 122.01054685 -52.78773588 122.01054685 -60.5625 130 C-61.73773928 132.93809819 -62.72055365 135.83294138 -63 139 C-62.67 139.66 -62.34 140.32 -62 141 C-50.5207818 141.87925927 -42.61828987 138.10454202 -33.5625 131.22265625 C-29.79617032 127.95582456 -26.41693255 124.3884236 -24 120 C-24 118.68 -24 117.36 -24 116 C-29.52906267 115.74637327 -34.03888259 116.56360989 -39.3125 118.1875 Z M-68 133 C-67 135 -67 135 -67 135 Z " fill="#E5E5E5" transform="translate(365,15)"/>
<path d="M0 0 C-1.51681494 3.81346128 -3.74453026 5.67252097 -6.9375 8.1875 C-7.93136719 8.98027344 -8.92523437 9.77304687 -9.94921875 10.58984375 C-10.95597656 11.38519531 -11.96273437 12.18054688 -13 13 C-25.15261282 22.78312258 -36.91315037 32.98798492 -48.36328125 43.58203125 C-50.58485288 45.61929472 -52.83582768 47.60231053 -55.125 49.5625 C-59.05964851 52.96654239 -62.68433629 56.64877781 -66.3125 60.375 C-68.4360487 62.44916385 -70.58119486 64.38004802 -72.83203125 66.30859375 C-77.06584684 69.98107423 -80.88438436 73.95120331 -84.6875 78.0625 C-85.37593994 78.80129395 -86.06437988 79.54008789 -86.77368164 80.30126953 C-88.1781621 81.80925166 -89.58109233 83.3186792 -90.98242188 84.82958984 C-92.84978485 86.83840601 -94.7270894 88.83720633 -96.609375 90.83203125 C-103.04110982 97.6640661 -109.2021426 104.61395064 -115 112 C-115.48436523 112.60650391 -115.96873047 113.21300781 -116.46777344 113.83789062 C-130.48932878 131.42307818 -141.71796372 149.62508174 -149 171 C-152.875 169.125 -152.875 169.125 -154 168 C-153.63312651 162.0785331 -152.31534016 157.71305037 -149.5625 152.5 C-149.20687988 151.81276855 -148.85125977 151.12553711 -148.48486328 150.41748047 C-136.35883389 127.39742208 -119.67687281 107.62930149 -102.23046875 88.4765625 C-100.33978105 86.37727003 -98.47690325 84.25890421 -96.62109375 82.12890625 C-85.94372213 69.9124157 -74.5197335 58.41638604 -63.0625 46.9375 C-62.42898621 46.30139801 -61.79547241 45.66529602 -61.14276123 45.00991821 C-48.85168573 32.67929409 -48.85168573 32.67929409 -42.64868164 27.40356445 C-40.08703236 25.22276752 -37.64914179 22.91794187 -35.1875 20.625 C-9.41284426 -3.13761475 -9.41284426 -3.13761475 0 0 Z " fill="#E6E6E6" transform="translate(891,11)"/>
<path d="M0 0 C2.87094342 2.08109056 4.14750222 3.92313129 5.3203125 7.24609375 C5.07656551 14.68037691 2.34792467 20.24326715 -2.6796875 25.68359375 C-10.9302581 33.33708358 -23.17780549 41.05859375 -34.8046875 41.05859375 C-35.54751566 52.51995715 -35.54751566 52.51995715 -31.8046875 63.05859375 C-27.5028119 65.92651082 -23.85296099 65.63910846 -18.8046875 65.05859375 C-6.92388069 61.74624861 3.1345115 51.73200142 9.5078125 41.49609375 C10.0646875 40.69171875 10.6215625 39.88734375 11.1953125 39.05859375 C12.1853125 39.05859375 13.1753125 39.05859375 14.1953125 39.05859375 C9.95039579 52.64232722 -3.38147268 62.00405289 -15.2734375 68.3828125 C-21.89569295 71.44668069 -28.59254415 72.28879008 -35.8046875 71.05859375 C-40.22473712 68.94563084 -42.24276531 66.53457605 -43.9765625 61.98046875 C-45.18338612 57.31305525 -44.98324083 52.65741432 -44.8671875 47.87109375 C-44.83264475 46.10685481 -44.80253049 44.34252231 -44.77734375 42.578125 C-44.75039429 41.41953979 -44.75039429 41.41953979 -44.72290039 40.23754883 C-44.80531936 38.04175998 -45.19399059 36.16356815 -45.8046875 34.05859375 C-44.3196875 33.56359375 -44.3196875 33.56359375 -42.8046875 33.05859375 C-41.43193935 30.84158622 -41.43193935 30.84158622 -40.1796875 28.12109375 C-36.47083342 21.00083755 -31.53621077 14.54627593 -24.8046875 10.05859375 C-24.5365625 9.10984375 -24.2684375 8.16109375 -23.9921875 7.18359375 C-22.42581381 3.06155774 -20.66350403 2.0972138 -16.8046875 0.05859375 C-11.05182964 -2.17862875 -5.6029397 -2.9227456 0 0 Z M-5.8046875 2.05859375 C-6.1759375 2.80109375 -6.5471875 3.54359375 -6.9296875 4.30859375 C-9.16334588 7.58462603 -11.45884473 8.95924142 -14.8046875 11.05859375 C-19.24847852 14.46629872 -22.47830692 17.87691493 -25.6171875 22.49609375 C-26.01099609 23.04330078 -26.40480469 23.59050781 -26.81054688 24.15429688 C-29.29522519 27.75558877 -30.40455911 30.70965734 -30.8046875 35.05859375 C-28.599203 36.44497553 -28.599203 36.44497553 -25.1796875 34.99609375 C-16.40092515 31.46240421 -7.67502701 24.13368125 -3.59765625 15.50390625 C-2.5260639 12.19938993 -2.49091143 9.51013053 -2.8046875 6.05859375 C-4.16353866 3.65775937 -4.16353866 3.65775937 -5.8046875 2.05859375 Z " fill="#E6E6E6" transform="translate(280.8046875,89.94140625)"/>
<path d="M0 0 C3.12550072 2.24220704 4.19682787 4.15088162 5.3671875 7.78515625 C5.6789868 14.15305725 2.28925284 19.32885173 -1.4453125 24.23046875 C-9.01117449 32.54639465 -19.7072829 38.3136094 -30.7109375 40.33203125 C-32.93842845 40.91882165 -32.93842845 40.91882165 -34.09765625 42.84375 C-35.85402703 48.32172806 -35.63470614 54.79047663 -33.5703125 60.16015625 C-31.7094703 63.2837128 -31.0723506 63.82871216 -27.8203125 65.09765625 C-20.05573482 66.37443193 -13.92743772 63.80765682 -7.53515625 59.58984375 C-0.81306974 54.63187257 5.06587936 48.64407538 9.4921875 41.53515625 C10.0490625 40.73078125 10.6059375 39.92640625 11.1796875 39.09765625 C12.1696875 39.09765625 13.1596875 39.09765625 14.1796875 39.09765625 C12.87754716 44.08426188 10.68497224 47.30724688 7.1796875 50.97265625 C6.69056885 51.492229 6.2014502 52.01180176 5.69750977 52.54711914 C-3.98069144 62.63423644 -14.74764852 70.97732968 -29.1328125 71.53515625 C-34.54010247 71.48047579 -37.55938754 70.82913217 -41.55078125 67.19140625 C-45.2689204 61.05933677 -45.03742938 54.26282877 -44.8203125 47.34765625 C-44.76912014 45.68646413 -44.72711492 44.02495767 -44.6953125 42.36328125 C-44.67210937 41.63915039 -44.64890625 40.91501953 -44.625 40.16894531 C-44.85154394 37.76644681 -45.62973269 36.17765542 -46.8203125 34.09765625 C-46.22863281 34.04738281 -45.63695312 33.99710938 -45.02734375 33.9453125 C-41.75081663 32.68689412 -41.11373672 30.59752726 -39.5078125 27.53515625 C-35.71806942 20.7168578 -31.55836697 15.14603308 -25.3828125 10.34765625 C-24.5371875 9.60515625 -23.6915625 8.86265625 -22.8203125 8.09765625 C-22.8203125 6.77765625 -22.8203125 5.45765625 -22.8203125 4.09765625 C-21.2174072 3.28267063 -19.61293972 2.47075698 -18.0078125 1.66015625 C-17.11449219 1.20769531 -16.22117187 0.75523438 -15.30078125 0.2890625 C-10.09249556 -2.21255504 -5.24419 -2.59958775 0 0 Z M-13.8203125 2.09765625 C-14.1503125 2.75765625 -14.4803125 3.41765625 -14.8203125 4.09765625 C-13.1703125 3.76765625 -11.5203125 3.43765625 -9.8203125 3.09765625 C-11.1403125 2.76765625 -12.4603125 2.43765625 -13.8203125 2.09765625 Z M-19.8203125 5.09765625 C-20.1503125 5.75765625 -20.4803125 6.41765625 -20.8203125 7.09765625 C-20.1603125 7.09765625 -19.5003125 7.09765625 -18.8203125 7.09765625 C-19.1503125 6.43765625 -19.4803125 5.77765625 -19.8203125 5.09765625 Z M-18.890625 14.02734375 C-20.64537968 15.98668867 -22.25231044 17.98613228 -23.8203125 20.09765625 C-24.38878906 20.855625 -24.95726562 21.61359375 -25.54296875 22.39453125 C-28.50249312 26.56445212 -30.55074617 29.8411129 -30.8203125 35.09765625 C-25.59894768 35.89221177 -23.05390687 34.92463319 -18.6953125 31.91015625 C-12.15091657 26.9820278 -5.19827893 21.2223749 -2.8203125 13.09765625 C-2.53192793 8.94359951 -2.53192793 8.94359951 -3.8203125 5.09765625 C-9.12269668 5.09765625 -15.16587374 10.55559446 -18.890625 14.02734375 Z " fill="#E5E5E5" transform="translate(635.8203125,89.90234375)"/>
<path d="M0 0 C2.18791892 4.12338565 2.07311187 7.49175897 1.625 12.0625 C0.635 11.7325 -0.355 11.4025 -1.375 11.0625 C-2.08072696 9.01589181 -2.3845872 7.00657466 -2.75 4.875 C-3.059375 3.9778125 -3.059375 3.9778125 -3.375 3.0625 C-10.27799647 0.76150118 -16.84593755 2.32166419 -23.375 5.0625 C-39.18620018 13.91480492 -51.17564224 29.73963976 -56.375 47.0625 C-56.82582639 48.95637335 -57.27579243 50.85048921 -57.71191406 52.74780273 C-62.57560244 73.86290163 -62.57560244 73.86290163 -70.375 79.0625 C-72.4375 78.875 -72.4375 78.875 -74.375 78.0625 C-76.375 75.0625 -76.375 75.0625 -76.17480469 73.17163086 C-75.86397949 72.11020874 -75.86397949 72.11020874 -75.546875 71.02734375 C-75.32475342 70.22707764 -75.10263184 69.42681152 -74.8737793 68.60229492 C-74.62668213 67.7435376 -74.37958496 66.88478027 -74.125 66 C-69.74444794 49.66200444 -65.61004497 29.12926819 -72.375 13.0625 C-79.21404586 12.4111623 -82.72274982 15.67032908 -87.75 19.8125 C-89.049375 20.92625 -89.049375 20.92625 -90.375 22.0625 C-91.125 20.375 -91.125 20.375 -91.375 18.0625 C-88.69643737 14.1087365 -85.80303465 11.7814645 -81.75 9.3125 C-80.78835938 8.71953125 -79.82671875 8.1265625 -78.8359375 7.515625 C-74.70375091 5.0756672 -72.25907982 4.56581392 -67.375 5.0625 C-63.8967248 7.78462841 -62.15339794 9.75847504 -61.375 14.0625 C-61.23201869 15.7211512 -61.12958775 17.3835869 -61.05859375 19.046875 C-61.01669922 19.98144531 -60.97480469 20.91601562 -60.93164062 21.87890625 C-60.89232422 22.84699219 -60.85300781 23.81507812 -60.8125 24.8125 C-60.76931641 25.79605469 -60.72613281 26.77960938 -60.68164062 27.79296875 C-60.57577948 30.21601275 -60.47369829 32.6391554 -60.375 35.0625 C-59.69695313 34.17949219 -59.01890625 33.29648438 -58.3203125 32.38671875 C-23.05704455 -13.2364515 -23.05704455 -13.2364515 0 0 Z " fill="#E5E5E5" transform="translate(737.375,81.9375)"/>
<path d="M0 0 C-1.8125 1.0625 -1.8125 1.0625 -4 2 C-4.99 1.67 -5.98 1.34 -7 1 C-7.33 1.66 -7.66 2.32 -8 3 C-9.8190918 3.43896484 -9.8190918 3.43896484 -12.19921875 3.7109375 C-13.50814087 3.87287598 -13.50814087 3.87287598 -14.84350586 4.03808594 C-15.78202393 4.14926758 -16.72054199 4.26044922 -17.6875 4.375 C-36.17896079 6.82494322 -56.80075042 11.98500667 -68.91015625 27.4375 C-73.89374662 34.7891794 -74.87680207 40.02567292 -74 49 C-72.06770699 55.39070566 -68.25321617 59.30178698 -62.625 62.71484375 C-57.92987192 65.01350021 -53.01469956 66.55753143 -48 68 C-48.495 69.485 -48.495 69.485 -49 71 C-61.33484003 69.6162075 -71.12078922 64.71460341 -79 55 C-83.33669238 49.34878614 -83.73568148 43.4668666 -83.50390625 36.46875 C-82.28595082 28.08468471 -77.02564431 22.2072641 -70.6640625 16.94140625 C-50.45242063 2.21239451 -24.72381315 -3.9558101 0 0 Z " fill="#E5E5E5" transform="translate(493,41)"/>
<path d="M0 0 C2.0625 0.4375 2.0625 0.4375 4 1 C3.44427566 4.65400695 2.54365874 7.10530028 0.453125 10.14453125 C-0.0625 10.90443359 -0.578125 11.66433594 -1.109375 12.44726562 C-1.65078125 13.22779297 -2.1921875 14.00832031 -2.75 14.8125 C-3.80841324 16.35991053 -4.86571416 17.9080825 -5.921875 19.45703125 C-6.43556641 20.20807129 -6.94925781 20.95911133 -7.47851562 21.73291016 C-9.73932889 25.10163801 -11.88119488 28.54066594 -14 32 C-13.39526855 32.81621826 -13.39526855 32.81621826 -12.77832031 33.64892578 C-10.93408005 36.13986833 -9.09202483 38.63241878 -7.25 41.125 C-6.61578125 41.9809375 -5.9815625 42.836875 -5.328125 43.71875 C4.05983085 56.43160689 4.05983085 56.43160689 3.75 59.375 C3.5025 59.91125 3.255 60.4475 3 61 C-1.46968731 60.59656029 -3.79405177 57.45696006 -6.6875 54.375 C-12.33270947 48.53644362 -18.23187855 43.51208097 -25 39 C-25.80563613 35.3582627 -24.91935703 33.85972324 -23.05078125 30.609375 C-22.15107622 29.31375257 -21.23736373 28.02778468 -20.3125 26.75 C-19.82861816 26.06413818 -19.34473633 25.37827637 -18.84619141 24.67163086 C-4.45285375 4.45285375 -4.45285375 4.45285375 0 0 Z " fill="#E5E5E5" transform="translate(26,70)"/>
<path d="M0 0 C4.4178562 0.41677889 6.651001 3.43802665 9.5 6.5 C15.1957035 12.43109263 21.27342162 17.27708327 28 22 C27.48762233 26.48932662 26.46832521 29.34041719 23.90234375 33.046875 C23.26490234 33.975 22.62746094 34.903125 21.97070312 35.859375 C21.29974609 36.81328125 20.62878906 37.7671875 19.9375 38.75 C18.97166992 40.15765625 18.97166992 40.15765625 17.98632812 41.59375 C16.02632896 44.42334002 14.02699923 47.21805443 12 50 C10.95803467 51.43375977 10.95803467 51.43375977 9.89501953 52.89648438 C9.20907715 53.80205078 8.52313477 54.70761719 7.81640625 55.640625 C7.2035376 56.45563477 6.59066895 57.27064453 5.95922852 58.11035156 C3.65647086 60.33132904 2.13864972 60.68420366 -1 61 C-0.42259777 56.63740536 1.16568812 53.70525695 3.5 50 C3.84804688 49.44546143 4.19609375 48.89092285 4.5546875 48.31958008 C8.5092862 42.08179662 12.73697051 36.02942365 17 30 C15.68041132 27.19442289 14.2008697 24.78249871 12.3203125 22.3203125 C11.80339844 21.63839844 11.28648437 20.95648438 10.75390625 20.25390625 C9.94759766 19.20009766 9.94759766 19.20009766 9.125 18.125 C-1.07831664 4.7440081 -1.07831664 4.7440081 -0.75 1.625 C-0.5025 1.08875 -0.255 0.5525 0 0 Z " fill="#E6E6E6" transform="translate(848,72)"/>
<path d="M0 0 C0 0.66 0 1.32 0 2 C-0.66 2 -1.32 2 -2 2 C-2.33 3.65 -2.66 5.3 -3 7 C-2.34 7.33 -1.68 7.66 -1 8 C-2.55766862 9.44273385 -4.12135957 10.87896708 -5.6875 12.3125 C-6.55761719 13.11300781 -7.42773438 13.91351563 -8.32421875 14.73828125 C-14.5492228 20 -14.5492228 20 -18 20 C-18 20.66 -18 21.32 -18 22 C-17.34 22.33 -16.68 22.66 -16 23 C-22.03796793 24.69119009 -26.83303685 25.38225036 -33 24 C-35 22.4375 -35 22.4375 -36 21 C-34 18 -34 18 -31.0234375 17.19140625 C-29.81945312 16.98386719 -28.61546875 16.77632812 -27.375 16.5625 C-17.51040127 14.59964617 -11.09711675 11.18560948 -4 4 C-3.67 3.34 -3.34 2.68 -3 2 C-5.36508361 1.27662302 -7.73243312 0.564163 -10.10546875 -0.1328125 C-11.93028243 -0.67951781 -13.74721038 -1.25402864 -15.55078125 -1.8671875 C-24.85209477 -4.83118726 -35.46775879 -5.28184925 -45 -3 C-45.33 -3.99 -45.66 -4.98 -46 -6 C-30.90727221 -11.81383967 -13.88099556 -6.81873466 0 0 Z M-30 22 C-30 22.33 -30 22.66 -30 23 C-27.69 23 -25.38 23 -23 23 C-23 22.67 -23 22.34 -23 22 C-25.31 22 -27.62 22 -30 22 Z " fill="#F0F0F0" transform="translate(447,147)"/>
<path d="M0 0 C5.66096617 2.93488615 9.58157174 9.24495849 11.90625 14.98828125 C11.90625 15.64828125 11.90625 16.30828125 11.90625 16.98828125 C11.24625 16.98828125 10.58625 16.98828125 9.90625 16.98828125 C9.90625 17.64828125 9.90625 18.30828125 9.90625 18.98828125 C7.19745665 20.34267793 4.89691732 20.05329576 1.90625 19.98828125 C1.90625 20.64828125 1.90625 21.30828125 1.90625 21.98828125 C3.88625 22.64828125 5.86625 23.30828125 7.90625 23.98828125 C7.57625 24.64828125 7.24625 25.30828125 6.90625 25.98828125 C5.91625 25.65828125 4.92625 25.32828125 3.90625 24.98828125 C1.35289669 24.89073742 -1.16615454 24.84687338 -3.71875 24.86328125 C-4.79092773 24.86618164 -4.79092773 24.86618164 -5.88476562 24.86914062 C-11.01708273 24.9110181 -16.00810453 25.26176047 -21.09375 25.98828125 C-21.09375 25.32828125 -21.09375 24.66828125 -21.09375 23.98828125 C-11.73249032 21.05755254 -2.83762005 19.11371305 6.90625 17.98828125 C6.90625 17.32828125 6.90625 16.66828125 6.90625 15.98828125 C6.41125 15.49328125 5.91625 14.99828125 5.40625 14.48828125 C4.91125 13.99328125 4.41625 13.49828125 3.90625 12.98828125 C3.90625 12.32828125 3.90625 11.66828125 3.90625 10.98828125 C0.62411612 6.74885832 -3.1640761 5.63150588 -8.09375 3.98828125 C-8.09375 2.66828125 -8.09375 1.34828125 -8.09375 -0.01171875 C-4.91833059 -1.07019189 -3.17263657 -0.98808809 0 0 Z " fill="#F5F5F5" transform="translate(100.09375,19.01171875)"/>
<path d="M0 0 C2.18791892 4.12338565 2.07311187 7.49175897 1.625 12.0625 C0.635 11.7325 -0.355 11.4025 -1.375 11.0625 C-2.08072696 9.01589181 -2.3845872 7.00657466 -2.75 4.875 C-2.95625 4.276875 -3.1625 3.67875 -3.375 3.0625 C-10.25810874 0.76813042 -16.86821387 2.2988129 -23.375 5.0625 C-29.1266763 8.49317585 -34.32652419 12.67829732 -39.375 17.0625 C-39.375 16.4025 -39.375 15.7425 -39.375 15.0625 C-41.355 16.0525 -43.335 17.0425 -45.375 18.0625 C-41.3711934 8.67857828 -30.13165034 2.49800591 -21.125 -1.3125 C-14.03395039 -2.4943416 -6.41137569 -3.68060456 0 0 Z " fill="#EDEDED" transform="translate(737.375,81.9375)"/>
<path d="M0 0 C0.99 0 1.98 0 3 0 C1.69785966 4.98660563 -0.49471526 8.20959063 -4 11.875 C-4.48911865 12.39457275 -4.9782373 12.91414551 -5.48217773 13.44946289 C-13.97708397 22.30328953 -24.35842611 31.3740801 -37.12890625 32.203125 C-38.26199219 32.21859375 -39.39507813 32.2340625 -40.5625 32.25 C-42.26599609 32.28867188 -42.26599609 32.28867188 -44.00390625 32.328125 C-47 32 -47 32 -50 29 C-45.545 29.99 -45.545 29.99 -41 31 C-41.33 29.02 -41.66 27.04 -42 25 C-41.01 25.33 -40.02 25.66 -39 26 C-30.04861008 27.09645539 -23.53704066 24.0488679 -16.4375 18.8125 C-10.69862064 14.13711926 -5.60798885 8.73404271 -1.6875 2.4375 C-1.130625 1.633125 -0.57375 0.82875 0 0 Z " fill="#ECEDEC" transform="translate(647,129)"/>
<path d="M0 0 C1.32 0.33 2.64 0.66 4 1 C0.60361434 5.37371449 -2.79549785 9.74527201 -6.19921875 14.11328125 C-8.46281285 17.01910175 -10.717634 19.93096974 -12.95703125 22.85546875 C-35.51104799 52.17853979 -35.51104799 52.17853979 -45.5625 55 C-46.366875 55 -47.17125 55 -48 55 C-48.2226746 53.56465159 -48.42761906 52.12654475 -48.625 50.6875 C-48.74101563 49.88699219 -48.85703125 49.08648437 -48.9765625 48.26171875 C-49 46 -49 46 -47 43 C-47 45 -47 47 -47 49 C-44.13967987 50.3339184 -44.13967987 50.3339184 -42.0546875 49.1015625 C-24.35828366 37.11367603 -11.71531717 17.57297575 0 0 Z " fill="#EFF0F0" transform="translate(154,132)"/>
<path d="M0 0 C0.66 0 1.32 0 2 0 C4.02558881 3.34939881 4.21738987 5.86962551 4.125 9.75 C4.10695313 10.73484375 4.08890625 11.7196875 4.0703125 12.734375 C4.03550781 13.85585937 4.03550781 13.85585937 4 15 C6.9254644 15.2236068 6.9254644 15.2236068 9 14 C9.33 15.65 9.66 17.3 10 19 C11.65 17.02 13.3 15.04 15 13 C15 16.21879014 14.63469033 17.30276096 13 20 C12.34 20.61875 11.68 21.2375 11 21.875 C8.61009915 24.41426965 7.90842265 26.66911696 7 30 C5.68 29.67 4.36 29.34 3 29 C2.896875 29.9075 2.79375 30.815 2.6875 31.75 C1.91456832 37.26282152 0.40432909 42.62115462 -1 48 C-1.66 47.67 -2.32 47.34 -3 47 C-2.79503906 46.04480469 -2.59007812 45.08960938 -2.37890625 44.10546875 C0.64890172 29.71262742 2.81918629 14.61054484 0 0 Z M17 10 C17.99 10.33 18.98 10.66 20 11 C18.02 11.99 18.02 11.99 16 13 C16.33 12.01 16.66 11.02 17 10 Z " fill="#EDEDED" transform="translate(667,98)"/>
<path d="M0 0 C0.99 0.7425 1.98 1.485 3 2.25 C11.82580901 7.79361313 23.87099249 9.14950824 34 11 C33.34 11.33 32.68 11.66 32 12 C32 12.66 32 13.32 32 14 C32.66 14.33 33.32 14.66 34 15 C26.82269806 14.82258355 20.10244003 13.43210965 13.1875 11.625 C12.37563232 11.41593018 11.56376465 11.20686035 10.72729492 10.99145508 C6.18338361 9.76555785 2.14926591 8.28510297 -2 6 C-1.34 5.67 -0.68 5.34 0 5 C-0.2784375 4.0409375 -0.2784375 4.0409375 -0.5625 3.0625 C-0.7790625 2.0415625 -0.7790625 2.0415625 -1 1 C-0.67 0.67 -0.34 0.34 0 0 Z " fill="#ECECEC" transform="translate(468,153)"/>
<path d="M0 0 C2.28415922 1.50480017 4.02509676 3.07446934 6 5 C5.67 5.99 5.34 6.98 5 8 C4.01 6.68 3.02 5.36 2 4 C1.01 4.495 1.01 4.495 0 5 C0 7.97 0 10.94 0 14 C-0.33 14 -0.66 14 -1 14 C-1.33 11.36 -1.66 8.72 -2 6 C-6.95 8.475 -6.95 8.475 -12 11 C-12 9.68 -12 8.36 -12 7 C-12.99 7 -13.98 7 -15 7 C-15.66 7.66 -16.32 8.32 -17 9 C-17.33 8.34 -17.66 7.68 -18 7 C-19.32 7.33 -20.64 7.66 -22 8 C-20.96103353 5.07712444 -20.16614012 4.09942847 -17.4609375 2.48046875 C-6.6299599 -2.05757376 -6.6299599 -2.05757376 0 0 Z M-12 3 C-12.33 3.66 -12.66 4.32 -13 5 C-11.35 4.67 -9.7 4.34 -8 4 C-9.32 3.67 -10.64 3.34 -12 3 Z " fill="#ECEDEF" transform="translate(634,89)"/>
<path d="M0 0 C0.99 0 1.98 0 3 0 C-0.96522085 12.68870673 -13.05011041 21.64470421 -24 28 C-25.134375 28.66 -26.26875 29.32 -27.4375 30 C-30.18627199 31.07269151 -31.31264276 31.13695883 -34 30 C-31.28789857 27.28789857 -29.4979064 25.70024218 -25.9375 24.3125 C-15.79266974 19.8903945 -7.50891296 11.78704203 -1.6875 2.4375 C-1.130625 1.633125 -0.57375 0.82875 0 0 Z " fill="#EDEEEE" transform="translate(292,129)"/>
<path d="M0 0 C0.66 0.33 1.32 0.66 2 1 C-1.50612129 11.81054065 -12.50206985 18.46939765 -22.03125 23.5390625 C-26.1915103 25.58634849 -29.09887378 26.11648384 -33.6875 26.0625 C-34.68136719 26.05347656 -35.67523438 26.04445313 -36.69921875 26.03515625 C-37.83810547 26.01775391 -37.83810547 26.01775391 -39 26 C-39 25.67 -39 25.34 -39 25 C-37.98679688 24.80083984 -37.98679688 24.80083984 -36.953125 24.59765625 C-35.61507812 24.33275391 -35.61507812 24.33275391 -34.25 24.0625 C-33.36828125 23.88847656 -32.4865625 23.71445313 -31.578125 23.53515625 C-30.30195312 23.27025391 -30.30195312 23.27025391 -29 23 C-28.25234375 22.87496094 -27.5046875 22.74992187 -26.734375 22.62109375 C-26.16203125 22.41613281 -25.5896875 22.21117188 -25 22 C-24.67 21.01 -24.34 20.02 -24 19 C-21.59375 17.7109375 -21.59375 17.7109375 -18.5 16.375 C-10.54881839 12.5842102 -5.13205529 7.06656834 0 0 Z " fill="#EDEDED" transform="translate(98,94)"/>
<path d="M0 0 C1.5 1.5625 1.5 1.5625 1.5 3.5625 C0.84 3.5625 0.18 3.5625 -0.5 3.5625 C-0.83 2.9025 -1.16 2.2425 -1.5 1.5625 C-2.79076014 2.20788007 -4.06313714 2.89211158 -5.30859375 3.62109375 C-7.9103108 4.73876542 -9.74541129 4.73122506 -12.5625 4.625 C-15.68011416 4.51717274 -17.4970523 4.56151743 -20.5 5.5625 C-21.49 7.0475 -21.49 7.0475 -22.5 8.5625 C-23.16 8.5625 -23.82 8.5625 -24.5 8.5625 C-24.375 6.3125 -24.375 6.3125 -23.5 3.5625 C-16.72715479 -2.08153768 -8.0009082 -4.60052221 0 0 Z " fill="#ECEEEE" transform="translate(281.5,90.4375)"/>
<path d="M0 0 C0.99 0.33 1.98 0.66 3 1 C3.09928082 8.75493514 3.06059488 16.31068715 2 24 C1.01 23.34 0.02 22.68 -1 22 C-1.99 24.64 -2.98 27.28 -4 30 C-5.68137242 26.63725516 -4.28157357 23.01697786 -3.625 19.4375 C-2.75883578 14.62146652 -1.95292873 9.84336945 -1.4609375 4.97265625 C-1 1 -1 1 0 0 Z " fill="#EDEDED" transform="translate(115,86)"/>
<path d="M0 0 C3.79646289 1.97539533 6.73127455 5.36100912 8.921875 9 C8.591875 9.99 8.261875 10.98 7.921875 12 C5.18394222 11.60886675 4.0915039 11.18174525 2.171875 9.125 C-0.94689251 6.17949735 -4.02241651 5.35190283 -8.078125 4 C-8.078125 2.68 -8.078125 1.36 -8.078125 0 C-4.91022421 -1.05596693 -3.16814978 -0.97481532 0 0 Z " fill="#F2F2F2" transform="translate(100.078125,19)"/>
<path d="M0 0 C12.65740558 -0.77074865 12.65740558 -0.77074865 17.375 1.9375 C19.56291892 6.06088565 19.44811187 9.42925897 19 14 C18.01 13.67 17.02 13.34 16 13 C15.29427304 10.95339181 14.9904128 8.94407466 14.625 6.8125 C14.41875 6.214375 14.2125 5.61625 14 5 C8.65574163 3.21858054 3.45219759 3.93615657 -2 5 C-2 4.34 -2 3.68 -2 3 C-1.34 2.67 -0.68 2.34 0 2 C0 1.34 0 0.68 0 0 Z " fill="#F2F4F3" transform="translate(720,80)"/>
<path d="M0 0 C-0.33 0.33 -0.66 0.66 -1 1 C0.11375 1.0825 1.2275 1.165 2.375 1.25 C6 2 6 2 7.4375 4.0625 C7.623125 4.701875 7.80875 5.34125 8 6 C7.34 6 6.68 6 6 6 C5.67 5.34 5.34 4.68 5 4 C-1.83904586 3.3486623 -5.34774982 6.60782908 -10.375 10.75 C-11.674375 11.86375 -11.674375 11.86375 -13 13 C-13.75 11.3125 -13.75 11.3125 -14 9 C-11.1099795 4.30371669 -5.74677333 -1.91559111 0 0 Z " fill="#ECECEC" transform="translate(660,91)"/>
<path d="M0 0 C2.50357861 0.8345262 4.66785852 1.79371992 7 3 C7 3.66 7 4.32 7 5 C6.43152344 5.09796875 5.86304688 5.1959375 5.27734375 5.296875 C1.13984097 6.09812763 -2.31714775 6.98015443 -5.9375 9.1875 C-7.4534375 10.0846875 -7.4534375 10.0846875 -9 11 C-9.66 10.67 -10.32 10.34 -11 10 C-11 9.34 -11 8.68 -11 8 C-11.33 7.01 -11.66 6.02 -12 5 C-11.01 5 -10.02 5 -9 5 C-8.67 4.34 -8.34 3.68 -8 3 C-6.01751285 2.28293018 -4.01584651 1.61709587 -2 1 C-1.34 0.67 -0.68 0.34 0 0 Z " fill="#EBEBEB" transform="translate(336,92)"/>
<path d="M0 0 C0.5775 0.37125 1.155 0.7425 1.75 1.125 C1.13253906 1.45371094 0.51507813 1.78242187 -0.12109375 2.12109375 C-6.88687795 5.92105474 -12.00816187 10.42734986 -17.25 16.125 C-17.91 15.795 -18.57 15.465 -19.25 15.125 C-17.9842403 9.91304831 -16.27795091 7.87325611 -11.875 4.875 C-10.91851562 4.20984375 -9.96203125 3.5446875 -8.9765625 2.859375 C-7.62691406 2.00085937 -7.62691406 2.00085937 -6.25 1.125 C-5.55648437 0.67640625 -4.86296875 0.2278125 -4.1484375 -0.234375 C-2.25 -0.875 -2.25 -0.875 0 0 Z " fill="#ECECEC" transform="translate(79.25,44.875)"/>
<path d="M0 0 C6.9213378 -0.51059049 12.2442607 -0.13027589 18 4 C22.59927204 8.96237247 24.25663691 12.19912195 24 19 C23.34 19 22.68 19 22 19 C21.1361871 17.54735962 20.28419546 16.0876837 19.4375 14.625 C18.96183594 13.81289063 18.48617187 13.00078125 17.99609375 12.1640625 C17.66738281 11.44992188 17.33867188 10.73578125 17 10 C17.33 9.34 17.66 8.68 18 8 C13.59345905 2.85903556 8.21394113 1.65661881 1.7578125 1.11328125 C1.17773438 1.07589844 0.59765625 1.03851562 0 1 C0 0.67 0 0.34 0 0 Z " fill="#EFEFEF" transform="translate(544,24)"/>
<path d="M0 0 C0.66 0.33 1.32 0.66 2 1 C3.95481523 8.1431594 2.78518241 15.23949114 0 22 C-0.66 22.33 -1.32 22.66 -2 23 C-2.0582253 19.91674642 -2.09367134 16.83363495 -2.125 13.75 C-2.14175781 12.87730469 -2.15851563 12.00460938 -2.17578125 11.10546875 C-2.18222656 10.26113281 -2.18867188 9.41679687 -2.1953125 8.546875 C-2.20578613 7.77182617 -2.21625977 6.99677734 -2.22705078 6.19824219 C-1.97326556 3.74116461 -1.22444152 2.12688458 0 0 Z " fill="#F0F1F0" transform="translate(315,18)"/>
<path d="M0 0 C2.75065232 0.16857483 2.75065232 0.16857483 5 0 C4.875 1.8125 4.875 1.8125 4 4 C0.9375 5.75 0.9375 5.75 -2 7 C-2 5.68 -2 4.36 -2 3 C-2.99 3 -3.98 3 -5 3 C-5.66 3.66 -6.32 4.32 -7 5 C-7.33 4.34 -7.66 3.68 -8 3 C-9.32 3.33 -10.64 3.66 -12 4 C-11.05104075 1.62760188 -10.27535377 0.21634939 -8.25 -1.375 C-5.04398261 -2.26556038 -3.0767254 -1.13022566 0 0 Z " fill="#EBECEC" transform="translate(624,93)"/>
<path d="M0 0 C2.44921875 1.11328125 2.44921875 1.11328125 5 3 C5.70703125 5.91796875 5.70703125 5.91796875 5.8125 9.1875 C5.86019531 10.27417969 5.90789062 11.36085938 5.95703125 12.48046875 C5.97121094 13.31191406 5.98539062 14.14335938 6 15 C5.67 15 5.34 15 5 15 C4.67 17.31 4.34 19.62 4 22 C2.00267708 19.00401561 1.68893321 17.97507493 1.3671875 14.55078125 C1.28339844 13.70322266 1.19960937 12.85566406 1.11328125 11.98242188 C1.03464844 11.10134766 0.95601563 10.22027344 0.875 9.3125 C0.78863281 8.41982422 0.70226562 7.52714844 0.61328125 6.60742188 C0.40133622 4.4055485 0.19720988 2.20323391 0 0 Z " fill="#EFF0F0" transform="translate(112,47)"/>
<path d="M0 0 C2 3 2 3 1.8671875 4.828125 C0.68088944 7.79921385 -1.0035097 10.15870574 -2.875 12.75 C-3.57367188 13.73484375 -4.27234375 14.7196875 -4.9921875 15.734375 C-5.65476563 16.48203125 -6.31734375 17.2296875 -7 18 C-7.99 18 -8.98 18 -10 18 C-8.14945936 14.14308372 -6.00656926 10.45576705 -3.875 6.75 C-3.50246094 6.1003125 -3.12992188 5.450625 -2.74609375 4.78125 C-1.83170879 3.18693776 -0.91598744 1.5933921 0 0 Z " fill="#EAEAEA" transform="translate(165,114)"/>
<path d="M0 0 C0.90363281 0.34933594 1.80726563 0.69867188 2.73828125 1.05859375 C3.91777344 1.51363281 5.09726562 1.96867187 6.3125 2.4375 C7.48425781 2.88996094 8.65601563 3.34242187 9.86328125 3.80859375 C11.89382815 4.57984755 13.93937926 5.31312642 16 6 C15.67 6.99 15.34 7.98 15 9 C8.13215645 8.05613723 2.80041878 6.86694585 -3 3 C-2.01 2.67 -1.02 2.34 0 2 C0 1.34 0 0.68 0 0 Z " fill="#F4F6F5" transform="translate(429,103)"/>
<path d="M0 0 C1.65 1.32 3.3 2.64 5 4 C5.66 3.34 6.32 2.68 7 2 C10.28788824 5.11016455 12.83735988 8.01618925 15 12 C11.53161047 12.43120519 10.24349495 12.1695578 7.32421875 10.13671875 C6.45410156 9.32847656 5.58398438 8.52023438 4.6875 7.6875 C3.80449219 6.88699219 2.92148437 6.08648437 2.01171875 5.26171875 C0 3 0 3 0 0 Z " fill="#ECECEC" transform="translate(415,94)"/>
<path d="M0 0 C0.66 0.66 1.32 1.32 2 2 C7.45399653 2.28210327 12.60293036 1.77100995 18 1 C17.01 1.495 17.01 1.495 16 2 C16 2.66 16 3.32 16 4 C16.66 4.33 17.32 4.66 18 5 C11.96203207 6.69119009 7.16696315 7.38225036 1 6 C-1 4.4375 -1 4.4375 -2 3 C-1.34 2.01 -0.68 1.02 0 0 Z M4 4 C4 4.33 4 4.66 4 5 C6.31 5 8.62 5 11 5 C11 4.67 11 4.34 11 4 C8.69 4 6.38 4 4 4 Z " fill="#FCFCFC" transform="translate(413,165)"/>
<path d="M0 0 C2.37948772 0.17625835 3.70225849 0.69719773 5.37890625 2.40234375 C6.62115486 3.90649092 7.81376056 5.45129851 9 7 C7.68 6.67 6.36 6.34 5 6 C5.57584432 8.38564077 6.22227595 10.66682784 7 13 C6.34 13 5.68 13 5 13 C3.45703125 11.171875 3.45703125 11.171875 1.8125 8.75 C1.26207031 7.96109375 0.71164062 7.1721875 0.14453125 6.359375 C-1 4 -1 4 -0.67578125 1.703125 C-0.45277344 1.14109375 -0.22976563 0.5790625 0 0 Z " fill="#F0F0F0" transform="translate(848,72)"/>
<path d="M0 0 C8.86956522 0.73913043 8.86956522 0.73913043 12 4 C12 4.66 12 5.32 12 6 C11.34 6 10.68 6 10 6 C9.67 5.34 9.34 4.68 9 4 C7.71286708 4.64356646 6.44419164 5.32623534 5.203125 6.0546875 C2.56000697 7.18879133 0.61347035 7.20035448 -2.25 7.125 C-3.14203125 7.10695313 -4.0340625 7.08890625 -4.953125 7.0703125 C-5.96632813 7.03550781 -5.96632813 7.03550781 -7 7 C-4.3359375 4.0234375 -4.3359375 4.0234375 -1.3125 3.8125 C-0.549375 3.874375 0.21375 3.93625 1 4 C1.33 3.34 1.66 2.68 2 2 C1.34 1.34 0.68 0.68 0 0 Z " fill="#F2F2F2" transform="translate(271,88)"/>
<path d="M0 0 C-1.39332574 3.36720387 -2.9789286 4.9859524 -6 7 C-6.66 6.67 -7.32 6.34 -8 6 C-7.34 4.35 -6.68 2.7 -6 1 C-6.94875 1.515625 -7.8975 2.03125 -8.875 2.5625 C-9.90625 3.036875 -10.9375 3.51125 -12 4 C-12.66 3.67 -13.32 3.34 -14 3 C-9.40344275 -0.10943579 -5.43443539 -1.81147846 0 0 Z M-16 4 C-15.34 4.33 -14.68 4.66 -14 5 C-15.98 5.99 -15.98 5.99 -18 7 C-17.34 6.01 -16.68 5.02 -16 4 Z " fill="#EBEBEB" transform="translate(891,11)"/>
<path d="M0 0 C0 0.66 0 1.32 0 2 C0.99 2.33 1.98 2.66 3 3 C2.34 3.66 1.68 4.32 1 5 C1 4.34 1 3.68 1 3 C-3.29 3.66 -7.58 4.32 -12 5 C-12.33 4.34 -12.66 3.68 -13 3 C-11.68 3 -10.36 3 -9 3 C-9 2.34 -9 1.68 -9 1 C-10.98 1.33 -12.96 1.66 -15 2 C-11.17130752 -1.82869248 -4.96032811 -1.39509228 0 0 Z " fill="#F1F1F1" transform="translate(340,128)"/>
<path d="M0 0 C0.99 0.33 1.98 0.66 3 1 C1.65319085 3.91271644 0.12551255 6.29328277 -1.9375 8.75 C-2.69353516 9.67039062 -2.69353516 9.67039062 -3.46484375 10.609375 C-5 12 -5 12 -8 12 C-7.41463247 8.33939179 -5.916761 6.45464836 -3.4375 3.75 C-2.79683594 3.04359375 -2.15617187 2.3371875 -1.49609375 1.609375 C-0.75552734 0.81273438 -0.75552734 0.81273438 0 0 Z " fill="#ECECEC" transform="translate(306,115)"/>
<path d="M0 0 C0.66 0.66 1.32 1.32 2 2 C2.99 2 3.98 2 5 2 C5.66 2.33 6.32 2.66 7 3 C5.75023244 6.65316671 5.32901247 7.78065836 2 10 C2 9.34 2 8.68 2 8 C-0.12364481 7.77390663 -0.12364481 7.77390663 -1.625 9.5 C-2.07875 9.995 -2.5325 10.49 -3 11 C-2.69078116 9.54096742 -2.37751201 8.08279278 -2.0625 6.625 C-1.88847656 5.81289062 -1.71445312 5.00078125 -1.53515625 4.1640625 C-1 2 -1 2 0 0 Z " fill="#EBEBEB" transform="translate(306,124)"/>
<path d="M0 0 C0.66 0 1.32 0 2 0 C3.44207941 2.88415883 3.09394887 5.41721528 3.0625 8.625 C3.05347656 9.81351563 3.04445313 11.00203125 3.03515625 12.2265625 C3.02355469 13.14179688 3.01195312 14.05703125 3 15 C2.67 15 2.34 15 2 15 C1.67 16.65 1.34 18.3 1 20 C0.67 20 0.34 20 0 20 C0 13.4 0 6.8 0 0 Z " fill="#EAEAEA" transform="translate(484,16)"/>
<path d="M0 0 C6.92988052 0.14437251 10.19760593 3.22255343 15 8 C14.67 8.99 14.34 9.98 14 11 C12.125 10.75 12.125 10.75 10 10 C9.71125 9.37996094 9.4225 8.75992187 9.125 8.12109375 C7.74901395 5.52678672 6.40534837 4.74999182 3.875 3.3125 C2.57085804 2.56296645 1.27521703 1.79775205 0 1 C0 0.67 0 0.34 0 0 Z " fill="#E5E5E5" transform="translate(94,20)"/>
<path d="M0 0 C0.598125 0.226875 1.19625 0.45375 1.8125 0.6875 C1.0625 5.4375 1.0625 5.4375 -1.1875 7.6875 C-1.5175 7.0275 -1.8475 6.3675 -2.1875 5.6875 C-3.8375 6.3475 -5.4875 7.0075 -7.1875 7.6875 C-4.27205882 -0.61029412 -4.27205882 -0.61029412 0 0 Z " fill="#EAEAEA" transform="translate(28.1875,70.3125)"/>
<path d="M0 0 C-1.98 0.99 -1.98 0.99 -4 2 C-3.01 2.33 -2.02 2.66 -1 3 C-1 3.66 -1 4.32 -1 5 C-0.34 5 0.32 5 1 5 C1 5.66 1 6.32 1 7 C0.01 7.33 -0.98 7.66 -2 8 C-2.37125 7.525625 -2.7425 7.05125 -3.125 6.5625 C-5.62646962 4.47794198 -7.81593418 4.35378509 -11 4 C-11 3.34 -11 2.68 -11 2 C-7.17679443 0.57741188 -4.08718695 -0.24042276 0 0 Z " fill="#F1F2F3" transform="translate(631,88)"/>
<path d="M0 0 C0.99 0 1.98 0 3 0 C3.66 0.66 4.32 1.32 5 2 C3.6875 4.9375 3.6875 4.9375 2 8 C1.01 8.33 0.02 8.66 -1 9 C-1.80967438 6.08517222 -2.21845993 4.53886783 -1.0625 1.6875 C-0.711875 1.130625 -0.36125 0.57375 0 0 Z " fill="#F2F2F2" transform="translate(179,81)"/>
<path d="M0 0 C-0.99 0.495 -0.99 0.495 -2 1 C-1.67 2.32 -1.34 3.64 -1 5 C-1.99 4.67 -2.98 4.34 -4 4 C-4 3.34 -4 2.68 -4 2 C-6.31 2.33 -8.62 2.66 -11 3 C-10.67 2.01 -10.34 1.02 -10 0 C-6.7169902 -1.6415049 -3.57454967 -0.51888624 0 0 Z " fill="#F1F1F1" transform="translate(196,35)"/>
<path d="M0 0 C2 1 2 1 2 1 Z M-2 2 C-2 6.07546013 -3.55304448 7.80536362 -6 11 C-8 12.25 -8 12.25 -10 13 C-11.3372432 13.65878893 -12.67112568 14.32448889 -14 15 C-10.19524578 10.43969176 -6.25030379 6.14910608 -2 2 Z " fill="#ECECEC" transform="translate(818,68)"/>
<path d="M0 0 C1.32 1.32 2.64 2.64 4 4 C3.01 4.495 3.01 4.495 2 5 C4.64 6.32 7.28 7.64 10 9 C6.35839192 10.21386936 5.66834531 9.6674695 2.3125 8.0625 C1.50425781 7.68222656 0.69601562 7.30195313 -0.13671875 6.91015625 C-1.05904297 6.45962891 -1.05904297 6.45962891 -2 6 C-1.34 5.67 -0.68 5.34 0 5 C-0.2784375 4.0409375 -0.2784375 4.0409375 -0.5625 3.0625 C-0.7790625 2.0415625 -0.7790625 2.0415625 -1 1 C-0.67 0.67 -0.34 0.34 0 0 Z " fill="#F4F4F4" transform="translate(468,153)"/>
<path d="M0 0 C2.0625 2.25 2.0625 2.25 4 5 C3.75 7.3125 3.75 7.3125 3 9 C1.125 8.6875 1.125 8.6875 -1 8 C-1.66 7.01 -2.32 6.02 -3 5 C-2.01 5 -1.02 5 0 5 C0 3.35 0 1.7 0 0 Z " fill="#EEEEEE" transform="translate(26,122)"/>
<path d="M0 0 C1.98 0.66 3.96 1.32 6 2 C6 2.66 6 3.32 6 4 C7.32 4.33 8.64 4.66 10 5 C6.625 5.625 6.625 5.625 3 6 C0.8614515 3.8614515 0.57344937 2.86724686 0 0 Z " fill="#EDEDEF" transform="translate(599,121)"/>
<path d="M0 0 C0.99 0.33 1.98 0.66 3 1 C3 3.31 3 5.62 3 8 C2.34 8 1.68 8 1 8 C-1 5 -1 5 -0.625 2.3125 C-0.41875 1.549375 -0.2125 0.78625 0 0 Z " fill="#F5F5F5" transform="translate(565,35)"/>
<path d="M0 0 C1.134375 0.020625 2.26875 0.04125 3.4375 0.0625 C2.4475 1.5475 2.4475 1.5475 1.4375 3.0625 C-0.9453125 3.35546875 -0.9453125 3.35546875 -3.6875 3.25 C-4.59757812 3.22292969 -5.50765625 3.19585937 -6.4453125 3.16796875 C-7.14398438 3.13316406 -7.84265625 3.09835938 -8.5625 3.0625 C-7.923125 2.753125 -7.28375 2.44375 -6.625 2.125 C-2.58814103 0.04540598 -2.58814103 0.04540598 0 0 Z " fill="#E4E4E4" transform="translate(514.5625,163.9375)"/>
<path d="M0 0 C0.36923077 5.53846154 0.36923077 5.53846154 -1.5 7.875 C-2.2425 8.431875 -2.2425 8.431875 -3 9 C-3.66 8.67 -4.32 8.34 -5 8 C-3.91891892 0 -3.91891892 0 0 0 Z " fill="#E7E7E7" transform="translate(459,133)"/>
<path d="M0 0 C2.875 -0.125 2.875 -0.125 6 0 C6.66 0.66 7.32 1.32 8 2 C3.56923077 4.09230769 3.56923077 4.09230769 0.6875 3.625 C0.130625 3.41875 -0.42625 3.2125 -1 3 C-0.67 2.01 -0.34 1.02 0 0 Z " fill="#E7E8E8" transform="translate(267,89)"/>
<path d="M0 0 C1.77155654 0.11429397 3.54226229 0.24183037 5.3125 0.375 C6.79169922 0.47941406 6.79169922 0.47941406 8.30078125 0.5859375 C11 1 11 1 14 3 C10.625 3.625 10.625 3.625 7 4 C6.34 3.34 5.68 2.68 5 2 C5 2.66 5 3.32 5 4 C2.86906094 2.93453047 1.63412443 1.70840281 0 0 Z " fill="#EEEEEE" transform="translate(501,40)"/>
<path d="M0 0 C0.66 0.33 1.32 0.66 2 1 C0.90344712 2.31886772 -0.20253423 3.62990057 -1.3125 4.9375 C-1.92738281 5.66839844 -2.54226563 6.39929687 -3.17578125 7.15234375 C-5 9 -5 9 -8 10 C-6.34908222 5.70761377 -3.26245434 3.1206085 0 0 Z " fill="#EBEBEB" transform="translate(842,44)"/>
<path d="M0 0 C0.33 0.99 0.66 1.98 1 3 C-0.98 4.98 -2.96 6.96 -5 9 C-5.66 8.67 -6.32 8.34 -7 8 C-4.69 5.36 -2.38 2.72 0 0 Z " fill="#E5E6E6" transform="translate(134,160)"/>
<path d="M0 0 C0.66 0.33 1.32 0.66 2 1 C1.67 1.99 1.34 2.98 1 4 C-2.3 4 -5.6 4 -9 4 C-6 1 -6 1 -3.375 0.875 C-2.59125 0.91625 -1.8075 0.9575 -1 1 C-0.67 0.67 -0.34 0.34 0 0 Z " fill="#FFFFFF" transform="translate(273,91)"/>
<path d="M0 0 C1.32 0.33 2.64 0.66 4 1 C4 1.66 4 2.32 4 3 C0.37 3.66 -3.26 4.32 -7 5 C-7 4.34 -7 3.68 -7 3 C-4.625 1.9375 -4.625 1.9375 -2 1 C-1.34 1.33 -0.68 1.66 0 2 C0 1.34 0 0.68 0 0 Z " fill="#EEEEEE" transform="translate(465,43)"/>
<path d="M0 0 C0.69609375 0.39445312 1.3921875 0.78890625 2.109375 1.1953125 C2.81578125 1.58460937 3.5221875 1.97390625 4.25 2.375 C4.78109375 2.68695313 5.3121875 2.99890625 5.859375 3.3203125 C5.529375 3.9803125 5.199375 4.6403125 4.859375 5.3203125 C1.229375 4.0003125 -2.400625 2.6803125 -6.140625 1.3203125 C-2.140625 -0.6796875 -2.140625 -0.6796875 0 0 Z " fill="#EEEEEE" transform="translate(102.140625,39.6796875)"/>
<path d="M0 0 C0.99 0.33 1.98 0.66 3 1 C3 3.97 3 6.94 3 10 C2.34 9.01 1.68 8.02 1 7 C0.34 6.67 -0.32 6.34 -1 6 C-0.67 4.02 -0.34 2.04 0 0 Z " fill="#F5F7F6" transform="translate(485,30)"/>
<path d="M0 0 C0.33 0 0.66 0 1 0 C1.125 5.75 1.125 5.75 0 8 C-0.99 8 -1.98 8 -3 8 C-3.33 6.35 -3.66 4.7 -4 3 C-3.67 3.66 -3.34 4.32 -3 5 C-2.34 5 -1.68 5 -1 5 C-0.67 3.35 -0.34 1.7 0 0 Z " fill="#F1F1F1" transform="translate(298,160)"/>
<path d="M0 0 C1.27351308 2.54702616 0.80191925 3.4282945 0.0625 6.125 C-0.13214844 6.84945312 -0.32679688 7.57390625 -0.52734375 8.3203125 C-0.68332031 8.87460938 -0.83929688 9.42890625 -1 10 C-0.34 10.33 0.32 10.66 1 11 C0.01 11 -0.98 11 -2 11 C-2.33 8.03 -2.66 5.06 -3 2 C-2.01 1.34 -1.02 0.68 0 0 Z " fill="#E4E6E5" transform="translate(397,146)"/>
<path d="M0 0 C0.66 0.33 1.32 0.66 2 1 C1.25 3.4375 1.25 3.4375 0 6 C-2.125 6.8125 -2.125 6.8125 -4 7 C-2.92598892 4.08482708 -2.22189824 2.22189824 0 0 Z " fill="#F2F2F2" transform="translate(98,94)"/>
<path d="M0 0 C0.99 0.33 1.98 0.66 3 1 C1.35 2.32 -0.3 3.64 -2 5 C-2.33 4.01 -2.66 3.02 -3 2 C-2.01 1.34 -1.02 0.68 0 0 Z M-3 5 C-2.01 5.99 -1.02 6.98 0 8 C-1.32 7.67 -2.64 7.34 -4 7 C-3.67 6.34 -3.34 5.68 -3 5 Z " fill="#EDEEEF" transform="translate(433,168)"/>
<path d="M0 0 C0.99 0 1.98 0 3 0 C2.25 2.4375 2.25 2.4375 1 5 C-1.125 5.8125 -1.125 5.8125 -3 6 C-1.125 1.125 -1.125 1.125 0 0 Z " fill="#F2F2F2" transform="translate(292,129)"/>
<path d="M0 0 C2.51083114 1.25541557 2.87125446 2.50063488 4 5 C0.25 6.125 0.25 6.125 -2 5 C-1.34 3.35 -0.68 1.7 0 0 Z " fill="#EEEEEE" transform="translate(470,104)"/>
<path d="M0 0 C0.99 0.33 1.98 0.66 3 1 C2.67 2.32 2.34 3.64 2 5 C0.68 5 -0.64 5 -2 5 C-2.33 4.01 -2.66 3.02 -3 2 C-2.01 1.34 -1.02 0.68 0 0 Z " fill="#F3F3F3" transform="translate(107,29)"/>
<path d="M0 0 C0.66 0.66 1.32 1.32 2 2 C0.88243734 5.86848614 -0.02873292 8.28922757 -3 11 C-2.69078116 9.54096742 -2.37751201 8.08279278 -2.0625 6.625 C-1.88847656 5.81289062 -1.71445312 5.00078125 -1.53515625 4.1640625 C-1 2 -1 2 0 0 Z " fill="#F1F1F1" transform="translate(306,124)"/>
<path d="M0 0 C1.41687119 4.25061356 0.19320039 6.71851625 -1 11 C-2.125 9.375 -2.125 9.375 -3 7 C-1.63157895 1.63157895 -1.63157895 1.63157895 0 0 Z " fill="#ECECEC" transform="translate(140,100)"/>
<path d="M0 0 C-0.33 0.99 -0.66 1.98 -1 3 C-3.97 2.67 -6.94 2.34 -10 2 C-6.00889681 0.0044484 -4.30013434 -0.19546065 0 0 Z " fill="#EAEAEA" transform="translate(353,88)"/>
<path d="M0 0 C1.32 0.99 2.64 1.98 4 3 C3.67 4.65 3.34 6.3 3 8 C2.01 7.34 1.02 6.68 0 6 C0.33 5.67 0.66 5.34 1 5 C0.01 4.34 -0.98 3.68 -2 3 C-1.34 3 -0.68 3 0 3 C0 2.01 0 1.02 0 0 Z " fill="#F1F1F1" transform="translate(527,41)"/>
<path d="M0 0 C0.99 0 1.98 0 3 0 C3 2.64 3 5.28 3 8 C2.67 7.01 2.34 6.02 2 5 C1.34 5 0.68 5 0 5 C0 3.35 0 1.7 0 0 Z " fill="#E8EAE9" transform="translate(314,25)"/>
<path d="M0 0 C2.125 0.9375 2.125 0.9375 4 2 C4 2.66 4 3.32 4 4 C2.35 4 0.7 4 -1 4 C-1.33 3.01 -1.66 2.02 -2 1 C-1.34 0.67 -0.68 0.34 0 0 Z " fill="#EEEEEE" transform="translate(355,126)"/>
<path d="M0 0 C1.65 0 3.3 0 5 0 C5 0.66 5 1.32 5 2 C5.66 2 6.32 2 7 2 C7 2.66 7 3.32 7 4 C6.01 4.33 5.02 4.66 4 5 C2.68 3.35 1.36 1.7 0 0 Z " fill="#FCFEFE" transform="translate(625,91)"/>
<path d="M0 0 C-3.42346555 3.14958831 -6.44262737 3.56179109 -11 4 C-3.77464789 -1.88732394 -3.77464789 -1.88732394 0 0 Z " fill="#EDEDED" transform="translate(446,47)"/>
<path d="" fill="#FFFFFF" transform="translate(0,0)"/>
<path d="" fill="#FFFFFF" transform="translate(0,0)"/>
</svg>
