<?xml version="1.0" encoding="UTF-8"?>
<svg version="1.1" xmlns="http://www.w3.org/2000/svg" width="895" height="195">
<path d="M0 0 C295.35 0 590.7 0 895 0 C895 64.35 895 128.7 895 195 C599.65 195 304.3 195 0 195 C0 130.65 0 66.3 0 0 Z " fill="#FEFEFE" transform="translate(0,0)"/>
<path d="M0 0 C9.81684473 0.4090352 18.25655183 5.31246734 26 11 C26.99 11.70125 27.98 12.4025 29 13.125 C39.21534323 22.00295847 46.91177174 35.75057535 48.22143555 49.2890625 C49.09433076 67.39465872 45.85324288 83.17673646 33.6875 97.25 C21.39658124 110.21918017 6.10487733 117.80123035 -11.86499023 118.47460938 C-27.27423629 118.63865499 -41.92275692 115.16669176 -56 109 C-55.38398776 105.60813014 -54.13913386 103.6014981 -52.0625 100.875 C-36.90921791 79.61746055 -26.70759678 54.3346272 -16.28027344 30.51806641 C-5.02849903 5.02849903 -5.02849903 5.02849903 0 0 Z " fill="#FDFDFD" transform="translate(523,47)"/>
<path d="M0 0 C2.13604308 3.20406462 2.24208908 3.99600747 2.1953125 7.66796875 C2.18886719 8.56064453 2.18242187 9.45332031 2.17578125 10.37304688 C2.15064453 11.76620117 2.15064453 11.76620117 2.125 13.1875 C2.11597656 14.12787109 2.10695313 15.06824219 2.09765625 16.03710938 C2.07409056 18.35832968 2.04119116 20.67903644 2 23 C2.98097656 22.96519531 3.96195312 22.93039063 4.97265625 22.89453125 C14.74294101 22.66051245 23.49073945 23.70466125 33 26 C33.25007812 25.43023437 33.50015625 24.86046875 33.7578125 24.2734375 C38.37955013 15.81478562 47.02564127 9.97647693 56 7 C62.57013902 5.94975473 68.49909138 6.32759497 74.3125 9.71875 C77.63371673 12.24041455 80.12674917 15.25349834 82 19 C82.039992 20.99960012 82.04346799 23.00047242 82 25 C81.01 23.515 81.01 23.515 80 22 C77.06625831 17.65371602 74.1176739 15.19015672 69 14 C61.55926823 13.16074277 55.11459167 13.40142279 49 18 C46.18716108 20.54125447 43.55478267 23.20061048 41 26 C44.13680818 27.05999176 47.27604377 28.08356427 50.4453125 29.04296875 C68.13206672 34.54426279 83.71156941 44.47282044 93 61 C99.45937562 74.7311267 100.03800581 89.15857781 95.12597656 103.50512695 C91.72667288 112.80163643 87.49293002 120.51930172 81 128 C80.03126953 129.12921875 80.03126953 129.12921875 79.04296875 130.28125 C67.71836214 142.55132469 50.52245455 150.25354984 33.87207031 151.109375 C16.78754382 151.68148137 0.27587053 149.45451134 -15.75 143.25 C-18.88632329 141.82051046 -18.88632329 141.82051046 -22 142 C-23.35663936 143.64775156 -24.68678142 145.3174387 -26 147 C-36.86170886 155.59289796 -47.51986733 158.34455648 -61.125 158.625 C-62.13844482 158.66036865 -63.15188965 158.6957373 -64.19604492 158.73217773 C-73.06601972 158.71557135 -78.98512476 155.67871665 -85.47265625 149.734375 C-85.99730469 149.07953125 -86.52195312 148.4246875 -87.0625 147.75 C-87.61035156 147.08484375 -88.15820312 146.4196875 -88.72265625 145.734375 C-91.83049702 141.51455451 -91.68564495 137.07221435 -91 132 C-88.74242484 127.29996206 -84.73253529 124.87329522 -80 123 C-67.19350355 119.98298354 -55.3282259 123.39277474 -43.47265625 128.328125 C-40.49538139 129.13711596 -38.89967425 129.04407256 -36 128 C-33.08396958 125.11072216 -31.1143684 121.50125794 -29 118 C-28.48928955 117.15719482 -28.48928955 117.15719482 -27.96826172 116.29736328 C-11.85118776 89.17962959 -4.74964487 58.00400803 -1 27 C-21.98641241 27.37659141 -42.75533862 33.80302638 -58.78515625 47.6875 C-62.03661785 51.08232411 -64.13321621 54.71364694 -66 59 C-66.33 59.66 -66.66 60.32 -67 61 C-67.81164842 68.03872157 -66.954531 74.04611114 -63 80 C-56.74514065 86.85372886 -49.91582254 90.00162598 -41 92 C-41 92.66 -41 93.32 -41 94 C-51.5611725 93.95418146 -59.29769226 89.83886102 -66.9375 82.6875 C-72.13607197 77.11627054 -75.08282534 71.73729458 -75.5625 64.0625 C-75.1896118 56.05783329 -71.08665192 49.13797014 -65.265625 43.78515625 C-48.41880345 30.51102272 -27.65213072 22.71492649 -6.0625 22.9375 C-4.061875 22.958125 -2.06125 22.97875 0 23 C0 15.41 0 7.82 0 0 Z M36.41455078 31.53369141 C32.47670796 37.95753889 29.0927441 44.56343115 25.875 51.375 C25.31441895 52.54893311 24.75383789 53.72286621 24.17626953 54.93237305 C20.26243198 63.16159987 16.54095333 71.4698136 12.875 79.8125 C-4.77935022 119.91945847 -4.77935022 119.91945847 -16.28515625 133.74609375 C-18.30275142 135.92590514 -18.30275142 135.92590514 -18 139 C4.54712144 148.8770155 27.90608188 151.69606962 51.171875 142.78515625 C66.3549463 135.99997542 76.79183244 123.24674737 82.95703125 108.0546875 C87.77514852 93.94319796 88.18231454 77.7647415 82 64 C74.0664098 48.03463161 62.43811404 37.26984864 45.8125 30.75 C40.75708891 29.29333908 40.75708891 29.29333908 36.41455078 31.53369141 Z " fill="#272727" transform="translate(485,17)"/>
<path d="M0 0 C-0.53811388 4.12741212 -1.41646308 7.28539262 -3.38671875 10.9453125 C-4.16063965 12.40590088 -4.16063965 12.40590088 -4.95019531 13.89599609 C-5.52350586 14.96156738 -6.09681641 16.02713867 -6.6875 17.125 C-7.9498733 19.51398192 -9.20951696 21.90420053 -10.46484375 24.296875 C-10.98233688 25.28166336 -10.98233688 25.28166336 -11.51028442 26.28634644 C-16.20780873 35.25899758 -20.72676671 44.32240386 -25.25405884 53.3817749 C-26.24957954 55.37370989 -27.24613778 57.36512668 -28.2437439 59.35601807 C-29.65951607 62.18155003 -31.07244172 65.00848561 -32.484375 67.8359375 C-32.91089859 68.68698059 -33.33742218 69.53802368 -33.77687073 70.41485596 C-35.67533444 74.22681468 -37.51165918 78.00375428 -39 82 C-37.95199219 81.43410156 -36.90398437 80.86820312 -35.82421875 80.28515625 C-34.44537898 79.54414712 -33.06646906 78.8032685 -31.6875 78.0625 C-30.65206055 77.50272461 -30.65206055 77.50272461 -29.59570312 76.93164062 C-28.92861328 76.57392578 -28.26152344 76.21621094 -27.57421875 75.84765625 C-26.96151123 75.51773682 -26.34880371 75.18781738 -25.7175293 74.84790039 C-20.69824385 72.37000723 -15.47725115 72.39232896 -10 73 C-6.83379905 75.18618637 -6.2103613 76.36891611 -5 80 C-3.98443319 90.33880315 -6.01491439 100.83822104 -11 110 C-9.02 110.99 -9.02 110.99 -7 112 C-7 112.66 -7 113.32 -7 114 C-8.010625 113.979375 -9.02125 113.95875 -10.0625 113.9375 C-13.88703032 114.46954152 -15.26601185 116.10573322 -17.5625 119.125 C-18.71965772 120.74195549 -19.86599946 122.36672054 -21 124 C-28.05378701 133.51764501 -40.05384033 142.93363725 -52 145 C-54.4157906 145.06831987 -56.83334713 145.08487642 -59.25 145.0625 C-60.51328125 145.05347656 -61.7765625 145.04445312 -63.078125 145.03515625 C-64.04234375 145.02355469 -65.0065625 145.01195312 -66 145 C-66.33 146.98 -66.66 148.96 -67 151 C-67.99 151 -68.98 151 -70 151 C-70.03738281 150.39671875 -70.07476562 149.7934375 -70.11328125 149.171875 C-70.50735473 144.38117777 -70.97836624 141.80988604 -74 138 C-74.625 135.25 -74.625 135.25 -74 132 C-71.41959 128.34794432 -68.3659831 125.16633942 -64.96875 122.265625 C-62.23923092 119.12451178 -61.11440797 115.76634722 -59.75 111.875 C-59.481875 111.14667969 -59.21375 110.41835937 -58.9375 109.66796875 C-57.50167879 105.93021235 -57.50167879 105.93021235 -57 102 C-57.48210937 102.5775 -57.96421875 103.155 -58.4609375 103.75 C-59.09257812 104.4925 -59.72421875 105.235 -60.375 106 C-61.00148438 106.7425 -61.62796875 107.485 -62.2734375 108.25 C-62.84320313 108.8275 -63.41296875 109.405 -64 110 C-64.66 110 -65.32 110 -66 110 C-64.59470671 105.42823417 -62.39389781 103.33567481 -58.828125 100.2265625 C-52.50950281 94.2819626 -49.64010748 87.68080942 -46.6164856 79.66934204 C-45.10791187 75.67483348 -43.50361872 71.7182911 -41.91796875 67.75390625 C-41.59706772 66.9433226 -41.27616669 66.13273895 -40.94554138 65.29759216 C-37.58574276 56.84629441 -33.86379099 48.57272364 -30.0625 40.3125 C-29.58654892 39.27632034 -29.58654892 39.27632034 -29.10098267 38.21920776 C-27.59991621 34.95341516 -26.09395676 31.6899422 -24.58300781 28.42871094 C-23.20361524 25.44101981 -21.84271973 22.44612102 -20.4921875 19.4453125 C-10.9015386 -1.74424618 -10.9015386 -1.74424618 0 0 Z " fill="#282828" transform="translate(365,16)"/>
<path d="M0 0 C4.37590888 3.24878084 6.87721486 7.83347876 7.703125 13.21875 C7.82322033 18.71740059 7.23468071 24.53495474 5.3203125 29.72265625 C4.6603125 30.05265625 4.0003125 30.38265625 3.3203125 30.72265625 C3.41570312 29.62566406 3.51109375 28.52867188 3.609375 27.3984375 C3.72197211 25.94405813 3.83391692 24.48962815 3.9453125 23.03515625 C4.00976562 22.31392578 4.07421875 21.59269531 4.140625 20.84960938 C4.44824957 16.63899807 4.49412669 13.41324754 2.3203125 9.72265625 C-4.80097505 6.67067587 -11.81126412 6.88100006 -19.0546875 9.28515625 C-57.78617063 24.79929692 -78.06033568 72.92881354 -96.82310486 107.07240295 C-124.85006087 158.06981403 -124.85006087 158.06981403 -135.6796875 164.72265625 C-136.6696875 164.72265625 -137.6596875 164.72265625 -138.6796875 164.72265625 C-138.3703125 163.95953125 -138.0609375 163.19640625 -137.7421875 162.41015625 C-132.83304097 149.99290326 -136.06101614 135.55913626 -138.2565918 122.81030273 C-139.24408157 117.01512334 -139.90775893 111.60262271 -139.6796875 105.72265625 C-140.3396875 105.72265625 -140.9996875 105.72265625 -141.6796875 105.72265625 C-141.92976563 106.42777344 -142.17984375 107.13289063 -142.4375 107.859375 C-143.82917039 111.06721901 -145.54730827 113.67114815 -147.5546875 116.53515625 C-147.9374585 117.08196045 -148.32022949 117.62876465 -148.71459961 118.19213867 C-153.86710232 125.49245149 -159.27962966 132.60481351 -164.6796875 139.72265625 C-164.6796875 135.92442515 -163.52032587 134.65142735 -161.390625 131.53125 C-160.69582031 130.50322266 -160.00101563 129.47519531 -159.28515625 128.41601562 C-158.54910156 127.34158203 -157.81304687 126.26714844 -157.0546875 125.16015625 C-154.91112763 122.0107125 -152.77530817 118.85837753 -150.67236328 115.68164062 C-149.4461296 113.86076925 -148.17641336 112.06729157 -146.83935547 110.32617188 C-141.76081813 103.23703451 -141.92764076 96.10011213 -142.02996826 87.72393799 C-142.07180958 83.70169582 -142.00190024 79.68173633 -141.9296875 75.66015625 C-141.91650482 74.87629547 -141.90332214 74.09243469 -141.88973999 73.28482056 C-141.57201182 58.61122033 -138.93711171 41.89572226 -128.7421875 30.5703125 C-125.61548471 27.80187774 -123.02290321 25.87190244 -118.8671875 25.41015625 C-114.948923 25.79429983 -113.46675483 27.01521942 -110.6796875 29.72265625 C-107.04426969 36.99349188 -110.50019822 46.52137223 -112.84765625 53.78125 C-116.53056336 64.23880755 -121.44520596 74.95049563 -127.32836914 84.359375 C-129.05314959 87.37579321 -128.86975185 89.04348353 -128.4921875 92.47265625 C-128.37617188 93.62507813 -128.26015625 94.7775 -128.140625 95.96484375 C-127.8304991 98.4931583 -127.50203103 101.01928335 -127.15625 103.54296875 C-124.74708409 121.31600318 -123.78483781 137.9041479 -130.6796875 154.72265625 C-130.6796875 155.38265625 -130.6796875 156.04265625 -130.6796875 156.72265625 C-126.01246018 150.97733167 -121.92462648 145.17669493 -118.3046875 138.72265625 C-117.55928711 137.40769165 -117.55928711 137.40769165 -116.79882812 136.06616211 C-111.25973932 126.17049604 -106.13517795 116.05865376 -100.96826172 105.96582031 C-85.53420129 75.82327448 -69.52057214 45.16615409 -45.6796875 20.72265625 C-44.68775391 19.63791016 -44.68775391 19.63791016 -43.67578125 18.53125 C-38.07884629 12.56040707 -31.54636475 8.09009547 -24.6796875 3.72265625 C-23.80957031 3.16835937 -22.93945312 2.6140625 -22.04296875 2.04296875 C-15.2834455 -1.81028605 -7.28118905 -3.47077087 0 0 Z " fill="#262626" transform="translate(309.6796875,9.27734375)"/>
<path d="M0 0 C5.80460524 0.39353256 8.67487608 0.80490354 13 5 C14.42542553 7.36284271 15.64686931 9.58456985 16.8125 12.0625 C17.12380859 12.68705078 17.43511719 13.31160156 17.75585938 13.95507812 C19.14786291 16.8216876 20 18.77449664 20 22 C20.556875 22.14695312 21.11375 22.29390625 21.6875 22.4453125 C31.31439943 25.27484037 37.36615492 30.09071562 42.45703125 38.79296875 C51.48341379 57.55413347 49.86558141 80.5273071 44 100 C43.78520996 100.74008301 43.57041992 101.48016602 43.34912109 102.24267578 C36.94130704 123.80875963 25.89845956 144.40308049 15 164 C14.01 164 13.02 164 12 164 C12.59656448 158.59509927 13.9051349 153.85270544 15.73046875 148.7421875 C16.28928314 147.14088934 16.84803742 145.5395702 17.40673828 143.93823242 C17.69808655 143.11068451 17.98943481 142.2831366 18.28961182 141.43051147 C25.872549 119.93856609 25.872549 119.93856609 32 98 C32.17208984 97.29858887 32.34417969 96.59717773 32.52148438 95.87451172 C37.02585911 76.75762488 37.9748878 54.53574151 27.8125 37.125 C26.08186091 34.42011088 26.08186091 34.42011088 24 32 C24.10828125 33.10214844 24.10828125 33.10214844 24.21875 34.2265625 C26.56679573 62.59878177 24.55455543 89.95947935 18.49414062 117.70800781 C18.02991063 119.86126433 17.59772049 122.01857307 17.171875 124.1796875 C13.6578845 141.25669956 7.57106746 160.29626165 -2 175 C-2.99 175.33 -3.98 175.66 -5 176 C-4.45764832 170.60469591 -3.49793137 165.92456538 -1.70703125 160.7734375 C-1.23979142 159.40951756 -0.77258909 158.04558477 -0.30541992 156.68164062 C-0.06149506 155.97885986 0.18242981 155.2760791 0.43374634 154.55200195 C5.18266083 140.83612017 9.49114683 127.09027747 13 113 C13.26151855 111.95811523 13.52303711 110.91623047 13.79248047 109.84277344 C14.62133326 106.52247806 15.43879174 103.19964824 16.25 99.875 C16.61992065 98.36389648 16.61992065 98.36389648 16.99731445 96.82226562 C17.69820812 93.88777344 18.36192072 90.94876714 19 88 C19.20012695 87.07872314 19.40025391 86.15744629 19.60644531 85.20825195 C21.17905682 77.0484094 21.30652086 69.02337846 21.26074219 60.74536133 C21.24999952 58.43739664 21.26070943 56.13020719 21.2734375 53.82226562 C21.28180673 44.64724699 20.92616452 35.77849357 18 27 C10.25379463 22.89906775 1.48148915 22.79936092 -6.99609375 24.65625 C-22.67645886 29.81631341 -32.69520587 41.37321789 -40.328125 55.44921875 C-43.08741342 61.63818609 -43.37537113 67.6345513 -43.4375 74.3125 C-43.44773193 75.17286865 -43.45796387 76.0332373 -43.46850586 76.91967773 C-43.39762404 82.00780266 -42.82557213 85.60616774 -40 90 C-34.28809802 95.15464325 -30.33110847 95.47599447 -22.73828125 95.3984375 C-10.7070742 94.11611449 -2.09845952 84.15380207 6 76 C2.93864275 86.10247894 -6.42106547 91.85661101 -15 97 C-21.6487386 100.30668649 -28.55892589 102.43145041 -36 101 C-41.91765816 98.50620278 -46.12426957 94.63592675 -49.078125 88.91015625 C-52.84668342 77.01364769 -50.13291968 63.13482461 -44.64453125 52.33203125 C-36.00127423 37.01516024 -21.50012057 26.52065709 -4.8125 21.1875 C2.06547911 19.42847661 8.95246826 19.74320735 16 20 C11.91475038 10.89076256 8.30912079 6.6506356 -1 3 C-0.67 2.01 -0.34 1.02 0 0 Z " fill="#272727" transform="translate(93,19)"/>
<path d="M0 0 C9.55650317 -0.20166126 18.63914824 -0.26439611 28 2 C27.38125 2.94746094 27.38125 2.94746094 26.75 3.9140625 C14.7962244 22.43174167 5.41026794 42.01924021 -3.5625 62.125 C-18.7714744 96.12824237 -18.7714744 96.12824237 -28 108 C-30.31 107.67 -32.62 107.34 -35 107 C-35 103.05222021 -33.14951545 100.9500185 -31 97.8125 C-12.85946718 70.32760423 -4.53211412 38.75564071 -1.29370117 6.26049805 C-1.01430736 4.1101179 -0.57206304 2.08957336 0 0 Z " fill="#F9F9F9" transform="translate(487,43)"/>
<path d="M0 0 C-1.50721148 3.76381862 -3.64916931 5.58463482 -6.8125 8.0625 C-7.8025 8.85140625 -8.7925 9.6403125 -9.8125 10.453125 C-10.33585938 10.86884766 -10.85921875 11.28457031 -11.3984375 11.71289062 C-14.07663269 13.86524506 -16.69449769 16.08761624 -19.3125 18.3125 C-19.85302002 18.77156738 -20.39354004 19.23063477 -20.95043945 19.70361328 C-22.06586523 20.65183164 -23.18085037 21.60056857 -24.29541016 22.54980469 C-26.02119329 24.01803039 -27.75074272 25.48173533 -29.48046875 26.9453125 C-36.90970371 33.25071958 -44.12879874 39.73578104 -51.24682617 46.39038086 C-52.49436657 47.53576923 -53.75663291 48.66520681 -55.02856445 49.78344727 C-62.82129494 56.65407763 -70.13576998 63.98425395 -77.46899414 71.33862305 C-79.68979307 73.56479862 -81.91590966 75.78555632 -84.14257812 78.00585938 C-85.57844584 79.44238771 -87.01400343 80.87922611 -88.44921875 82.31640625 C-89.10355392 82.96871719 -89.7578891 83.62102814 -90.43205261 84.29310608 C-94.81876686 88.70184308 -98.94638203 93.28476667 -103 98 C-103.96095791 99.09487624 -104.92297511 100.18882505 -105.88671875 101.28125 C-123.59847276 121.55268647 -140.2951978 143.8706708 -148 170 C-149.32 169.34 -150.64 168.68 -152 168 C-152.39335546 162.340052 -151.2497243 158.47723152 -148.625 153.5625 C-148.26776855 152.87438232 -147.91053711 152.18626465 -147.54248047 151.47729492 C-140.8439619 138.80710606 -132.98738026 127.14377262 -124 116 C-122.90751953 114.63488281 -122.90751953 114.63488281 -121.79296875 113.2421875 C-113.14949477 102.55854218 -104.18481854 92.14631445 -94.83764648 82.07324219 C-93.12209713 80.22145242 -91.42406456 78.35862865 -89.73730469 76.48022461 C-81.58881993 67.43239477 -72.9932641 58.84136828 -64.37426758 50.24389648 C-61.80368689 47.67870537 -59.23853407 45.10817269 -56.67382812 42.53710938 C-55.01854992 40.88249156 -53.36296175 39.22818375 -51.70703125 37.57421875 C-50.95162552 36.81678879 -50.19621979 36.05935883 -49.41792297 35.27897644 C-45.29913419 31.17810327 -41.09368833 27.24023913 -36.68574524 23.45106506 C-34.53568082 21.60032078 -32.45884304 19.67471321 -30.375 17.75 C-26.24610965 14.02502283 -21.9864373 10.50854591 -17.625 7.0625 C-17.02993652 6.58973633 -16.43487305 6.11697266 -15.82177734 5.62988281 C-10.15162006 1.19740675 -7.25557937 -0.27906074 0 0 Z " fill="#292929" transform="translate(890,11)"/>
<path d="M0 0 C-3.16727391 7.25767288 -9.83539339 11.34197928 -16.921875 14.2734375 C-21.41482233 15.84427999 -25.21356411 16.09204684 -30 16 C-30 16.66 -30 17.32 -30 18 C-16.57469592 17.74625714 -7.83972938 13.00484325 2 4 C2.33 3.34 2.66 2.68 3 2 C8.75 3.75 8.75 3.75 11 6 C4.71515372 14.5462162 -5.04647923 19.55681644 -15.3125 21.6875 C-26.30240873 22.6188482 -34.12428624 22.15960046 -42.9375 15 C-46.70518337 11.72220454 -47.89921636 9.05822822 -48.375 4.0625 C-48.27154003 1.13294935 -47.94081047 -0.11580561 -46.5625 -2.8125 C-33.51295881 -13.95235224 -13.63677645 -6.03226817 0 0 Z " fill="#F9F9F9" transform="translate(445,149)"/>
<path d="M0 0 C2.625 1.6875 2.625 1.6875 4.625 4.6875 C5.51639135 9.44471488 5.08291776 13.56243641 2.625 17.75 C-4.98277998 28.4305602 -16.30180171 37.05278633 -29.375 39.6875 C-31.04118233 39.72767745 -32.70906127 39.73675384 -34.375 39.6875 C-34.42910136 42.75023831 -34.46872225 45.81201452 -34.5 48.875 C-34.51675781 49.73931641 -34.53351562 50.60363281 -34.55078125 51.49414062 C-34.62040691 57.82967002 -34.62040691 57.82967002 -32.375 63.6875 C-28.45054871 66.04217077 -24.8657627 66.12208994 -20.375 65.6875 C-7.14839194 62.34076736 2.73250466 53.49554621 10 42.125 C10.53625 41.320625 11.0725 40.51625 11.625 39.6875 C12.285 39.6875 12.945 39.6875 13.625 39.6875 C11.49431275 45.96800744 7.16624759 50.00299539 2.625 54.6875 C1.93148437 55.40679687 1.23796875 56.12609375 0.5234375 56.8671875 C-8.25185242 65.31381487 -19.60087882 71.12789704 -31.90234375 70.96484375 C-35.63766451 70.54587412 -37.64485795 69.21787556 -40.375 66.6875 C-44.22328254 61.06029439 -43.65448111 55.5964972 -43.4375 49.0625 C-43.37745114 47.00806246 -43.32630741 44.95334043 -43.28515625 42.8984375 C-43.24080444 41.54177979 -43.24080444 41.54177979 -43.19555664 40.15771484 C-43.38710184 37.5209062 -44.03573797 35.94251081 -45.375 33.6875 C-44.385 34.0175 -43.395 34.3475 -42.375 34.6875 C-42.05789063 33.94886719 -41.74078125 33.21023437 -41.4140625 32.44921875 C-35.88164398 20.42155749 -27.62326347 10.31460075 -15.375 4.6875 C-12.23874202 3.93752527 -9.62292097 3.74074461 -6.375 3.6875 C-6.375 4.3475 -6.375 5.0075 -6.375 5.6875 C-8.0625 6.9140625 -8.0625 6.9140625 -10.375 8.3125 C-20.28518893 14.7797125 -28.58045364 24.30386091 -32.375 35.6875 C-22.24859074 35.31244781 -14.79705564 29.9433433 -8.00390625 22.68359375 C-3.66495674 17.36655969 -3.04382706 12.43947596 -3.07421875 5.82421875 C-3.18641333 3.47499518 -3.18641333 3.47499518 -5.375 1.6875 C-11.23681628 0.85009767 -14.62659973 2.60071154 -19.45703125 5.59375 C-21.375 6.6875 -21.375 6.6875 -23.375 6.6875 C-22.375 3.6875 -22.375 3.6875 -20.15234375 2.30078125 C-12.88116825 -1.02975719 -7.7703246 -3.0217929 0 0 Z " fill="#292929" transform="translate(635.375,90.3125)"/>
<path d="M0 0 C2.625 1.6875 2.625 1.6875 4.625 4.6875 C5.51639135 9.44471488 5.08291776 13.56243641 2.625 17.75 C-4.98277998 28.4305602 -16.30180171 37.05278633 -29.375 39.6875 C-31.04118233 39.72767745 -32.70906127 39.73675384 -34.375 39.6875 C-34.42910136 42.75023831 -34.46872225 45.81201452 -34.5 48.875 C-34.51675781 49.73931641 -34.53351563 50.60363281 -34.55078125 51.49414062 C-34.62040691 57.82967002 -34.62040691 57.82967002 -32.375 63.6875 C-28.45054871 66.04217077 -24.8657627 66.12208994 -20.375 65.6875 C-7.14839194 62.34076736 2.73250466 53.49554621 10 42.125 C10.53625 41.320625 11.0725 40.51625 11.625 39.6875 C12.285 39.6875 12.945 39.6875 13.625 39.6875 C11.49431275 45.96800744 7.16624759 50.00299539 2.625 54.6875 C1.93148437 55.40679687 1.23796875 56.12609375 0.5234375 56.8671875 C-8.25185242 65.31381487 -19.60087882 71.12789704 -31.90234375 70.96484375 C-35.63766451 70.54587412 -37.64485795 69.21787556 -40.375 66.6875 C-44.22328254 61.06029439 -43.65448111 55.5964972 -43.4375 49.0625 C-43.37745114 47.00806246 -43.32630741 44.95334043 -43.28515625 42.8984375 C-43.24080444 41.54177979 -43.24080444 41.54177979 -43.19555664 40.15771484 C-43.38710184 37.5209062 -44.03573797 35.94251081 -45.375 33.6875 C-44.385 34.0175 -43.395 34.3475 -42.375 34.6875 C-42.05789062 33.94886719 -41.74078125 33.21023437 -41.4140625 32.44921875 C-35.88164398 20.42155749 -27.62326347 10.31460075 -15.375 4.6875 C-12.23874202 3.93752527 -9.62292097 3.74074461 -6.375 3.6875 C-6.375 4.3475 -6.375 5.0075 -6.375 5.6875 C-8.0625 6.9140625 -8.0625 6.9140625 -10.375 8.3125 C-20.28518893 14.7797125 -28.58045364 24.30386091 -32.375 35.6875 C-22.24859074 35.31244781 -14.79705564 29.9433433 -8.00390625 22.68359375 C-3.66495674 17.36655969 -3.04382706 12.43947596 -3.07421875 5.82421875 C-3.18641333 3.47499518 -3.18641333 3.47499518 -5.375 1.6875 C-11.23681628 0.85009767 -14.62659973 2.60071154 -19.45703125 5.59375 C-21.375 6.6875 -21.375 6.6875 -23.375 6.6875 C-22.375 3.6875 -22.375 3.6875 -20.15234375 2.30078125 C-12.88116825 -1.02975719 -7.7703246 -3.0217929 0 0 Z " fill="#292929" transform="translate(280.375,90.3125)"/>
<path d="M0 0 C3.07365786 1.80803404 4.43019732 2.86039464 6 6 C6.04022391 8.3329866 6.04320247 10.66706666 6 13 C5.34 13 4.68 13 4 13 C3.01 10.03 2.02 7.06 1 4 C-10.64113317 3.070087 -18.3772012 4.94626545 -27.6875 12.05078125 C-40.26649315 22.84647202 -51.64888195 38.01995588 -53.421875 54.88671875 C-54.18437378 58.99287774 -55.69143043 62.56762958 -57.375 66.375 C-57.66777832 67.04152588 -57.96055664 67.70805176 -58.26220703 68.39477539 C-60.1618471 72.55566745 -62.37028693 76.25816158 -65 80 C-66.98 79.67 -68.96 79.34 -71 79 C-70.49492343 72.93908116 -69.43235145 67.34355789 -67.81640625 61.48046875 C-65.54452978 51.79510063 -64.68116507 42.50341146 -64.75 32.5625 C-64.74226562 31.41845703 -64.73453125 30.27441406 -64.7265625 29.09570312 C-64.73042969 27.44151367 -64.73042969 27.44151367 -64.734375 25.75390625 C-64.73663086 24.76720947 -64.73888672 23.7805127 -64.74121094 22.76391602 C-65.01481093 19.84181643 -65.7800646 17.65520695 -67 15 C-71.68594174 13.62059023 -71.68594174 13.62059023 -76.140625 15.1640625 C-78.82540003 17.18261558 -81.30093419 19.26021191 -83.609375 21.703125 C-85 23 -85 23 -87 23 C-85.18494975 16.14314352 -79.24014317 12.60470801 -73.5 9.0625 C-70.23803025 7.3313181 -68.96434258 7 -65.125 7 C-60.69109948 8.41884817 -60.69109948 8.41884817 -59 11 C-53.74557756 21.78539343 -57.907567 35.7905375 -60 47 C-59.67128906 46.34515625 -59.34257813 45.6903125 -59.00390625 45.015625 C-47.61602544 23.16570735 -27.37001475 -2.77024441 0 0 Z " fill="#292929" transform="translate(733,80)"/>
<path d="M0 0 C4.37590888 3.24878084 6.87721486 7.83347876 7.703125 13.21875 C7.82322033 18.71740059 7.23468071 24.53495474 5.3203125 29.72265625 C4.6603125 30.05265625 4.0003125 30.38265625 3.3203125 30.72265625 C3.41570312 29.62566406 3.51109375 28.52867188 3.609375 27.3984375 C3.72197211 25.94405813 3.83391692 24.48962815 3.9453125 23.03515625 C4.00976562 22.31392578 4.07421875 21.59269531 4.140625 20.84960938 C4.44824957 16.63899807 4.49412669 13.41324754 2.3203125 9.72265625 C-4.80097505 6.67067587 -11.81126412 6.88100006 -19.0546875 9.28515625 C-57.78617063 24.79929692 -78.06033568 72.92881354 -96.82310486 107.07240295 C-124.85006087 158.06981403 -124.85006087 158.06981403 -135.6796875 164.72265625 C-136.6696875 164.72265625 -137.6596875 164.72265625 -138.6796875 164.72265625 C-137.9921875 162.34765625 -137.9921875 162.34765625 -136.6796875 159.72265625 C-135.5659375 159.28953125 -135.5659375 159.28953125 -134.4296875 158.84765625 C-117.73778481 152.0191506 -105.9698196 116.19023159 -97.90625 100.34375 C-79.91091382 65.00319604 -59.53430299 25.16136475 -24.6796875 3.72265625 C-23.81601562 3.17480469 -22.95234375 2.62695312 -22.0625 2.0625 C-15.30557658 -1.81247685 -7.28799654 -3.47401584 0 0 Z " fill="#2C2C2C" transform="translate(309.6796875,9.27734375)"/>
<path d="M0 0 C2.61593153 1.83115207 2.96989455 2.90968366 4 6 C4.1496686 8.53573152 4.23112347 11.02596611 4.25 13.5625 C4.270625 14.22830078 4.29125 14.89410156 4.3125 15.58007812 C4.35708955 21.42688266 2.88503985 26.49485911 1 32 C0.39639648 32.03963867 -0.20720703 32.07927734 -0.82910156 32.12011719 C-16.20474081 33.08325664 -16.20474081 33.08325664 -30.953125 37.1953125 C-33 38 -33 38 -35 38 C-26.38279656 10.51877527 -26.38279656 10.51877527 -16.125 4.08984375 C-15.42375 3.73019531 -14.7225 3.37054688 -14 3 C-13.38125 2.65066406 -12.7625 2.30132812 -12.125 1.94140625 C-8.07843807 -0.09090722 -4.46267744 -0.51492432 0 0 Z " fill="#FAFAFA" transform="translate(344,96)"/>
<path d="M0 0 C2.13604308 3.20406462 2.24208908 3.99600747 2.1953125 7.66796875 C2.18886719 8.56064453 2.18242187 9.45332031 2.17578125 10.37304688 C2.15064453 11.76620117 2.15064453 11.76620117 2.125 13.1875 C2.11597656 14.12787109 2.10695313 15.06824219 2.09765625 16.03710938 C2.07409056 18.35832968 2.04119116 20.67903644 2 23 C3.09699219 22.98839844 4.19398438 22.97679688 5.32421875 22.96484375 C6.77864412 22.95546036 8.23307135 22.94636075 9.6875 22.9375 C10.40873047 22.92912109 11.12996094 22.92074219 11.87304688 22.91210938 C15.71555382 22.89456368 19.26639526 23.06475779 23 24 C22.34 24.33 21.68 24.66 21 25 C21 25.66 21 26.32 21 27 C14.73 26.67 8.46 26.34 2 26 C1.67 27.32 1.34 28.64 1 30 C0.01 29.01 0.01 29.01 -1 28 C-19.16765472 25.39679156 -38.4551125 33.21584232 -53.26171875 43.19921875 C-59.16924841 47.71859725 -63.02920881 52.17871731 -66 59 C-66.33 59.66 -66.66 60.32 -67 61 C-67.81164842 68.03872157 -66.954531 74.04611114 -63 80 C-56.74514065 86.85372886 -49.91582254 90.00162598 -41 92 C-41 92.66 -41 93.32 -41 94 C-51.5611725 93.95418146 -59.29769226 89.83886102 -66.9375 82.6875 C-72.13607197 77.11627054 -75.08282534 71.73729458 -75.5625 64.0625 C-75.1896118 56.05783329 -71.08665192 49.13797014 -65.265625 43.78515625 C-48.41880345 30.51102272 -27.65213072 22.71492649 -6.0625 22.9375 C-4.061875 22.958125 -2.06125 22.97875 0 23 C0 15.41 0 7.82 0 0 Z " fill="#2D2D2D" transform="translate(485,17)"/>
<path d="M0 0 C0.99 0 1.98 0 3 0 C7.05002197 26.09651253 3.07225993 53.16774246 -2.50585938 78.70800781 C-2.97008937 80.86126433 -3.40227951 83.01857307 -3.828125 85.1796875 C-7.3421155 102.25669956 -13.42893254 121.29626165 -23 136 C-23.99 136.33 -24.98 136.66 -26 137 C-25.45764832 131.60469591 -24.49793137 126.92456538 -22.70703125 121.7734375 C-22.23979142 120.40951756 -21.77258909 119.04558477 -21.30541992 117.68164062 C-21.06149506 116.97885986 -20.81757019 116.2760791 -20.56625366 115.55200195 C-15.81733917 101.83612017 -11.50885317 88.09027747 -8 74 C-7.73848145 72.95811523 -7.47696289 71.91623047 -7.20751953 70.84277344 C-6.37866674 67.52247806 -5.56120826 64.19964824 -4.75 60.875 C-4.50338623 59.86759766 -4.25677246 58.86019531 -4.00268555 57.82226562 C-3.30180941 54.88784684 -2.6399183 51.94828354 -2 49 C-1.79842285 48.09830078 -1.5968457 47.19660156 -1.38916016 46.26757812 C0.47649815 36.80261435 0.22294679 27.35063345 0.125 17.75 C0.11494488 16.02214063 0.10582353 14.29427557 0.09765625 12.56640625 C0.07585539 8.37746077 0.0414669 4.18879506 0 0 Z " fill="#2C2C2C" transform="translate(114,58)"/>
<path d="M0 0 C-1.19930364 7.79547367 -8.16855662 14.26759096 -14 19 C-21.48040893 23.66170412 -28.85001061 27.16845225 -37.75 27.0625 C-38.73484375 27.05347656 -39.7196875 27.04445312 -40.734375 27.03515625 C-41.48203125 27.02355469 -42.2296875 27.01195312 -43 27 C-42.56983068 25.45627181 -42.13045174 23.91510913 -41.6875 22.375 C-41.44386719 21.51648438 -41.20023437 20.65796875 -40.94921875 19.7734375 C-38.24405623 11.86946472 -38.24405623 11.86946472 -34.171875 9.0234375 C-23.48464552 3.8750233 -12.11271132 -0.98879276 0 0 Z " fill="#F9F9F9" transform="translate(343,130)"/>
<path d="M0 0 C-0.33 0.66 -0.66 1.32 -1 2 C-2.93909458 2.62561003 -4.90304515 3.17479174 -6.875 3.6875 C-22.12419129 8.21382074 -32.47783097 18.25061762 -40 32 C-43.76772354 38.95750718 -44.36512199 45.53291835 -44.4375 53.3125 C-44.44773193 54.17286865 -44.45796387 55.0332373 -44.46850586 55.91967773 C-44.39762404 61.00780266 -43.82557213 64.60616774 -41 69 C-35.28809802 74.15464325 -31.33110847 74.47599447 -23.73828125 74.3984375 C-11.7070742 73.11611449 -3.09845952 63.15380207 5 55 C1.93864275 65.10247894 -7.42106547 70.85661101 -16 76 C-22.6487386 79.30668649 -29.55892589 81.43145041 -37 80 C-42.91765816 77.50620278 -47.12426957 73.63592675 -50.078125 67.91015625 C-53.84668342 56.01364769 -51.13291968 42.13482461 -45.64453125 31.33203125 C-37.11667397 16.21966219 -23.61610967 6.99883591 -7.6875 0.6875 C-5.00576924 0.00147585 -2.75519517 -0.1620703 0 0 Z " fill="#2D2D2D" transform="translate(94,40)"/>
<path d="M0 0 C3.11356545 4.67034817 2.45550531 9.35883474 1.53515625 14.6953125 C-1.47768901 27.78068778 -6.69104277 40.18748434 -13 52 C-13.33 52 -13.66 52 -14 52 C-15.9148495 36.99005066 -18.3258582 16.72792385 -9.9375 3.25 C-6.85815821 -0.32600982 -4.62146172 -0.38512181 0 0 Z " fill="#F5F5F5" transform="translate(193,37)"/>
<path d="M0 0 C0.99 0 1.98 0 3 0 C2.72894685 6.40102441 -0.7873159 10.59914943 -4.375 15.625 C-4.96539063 16.470625 -5.55578125 17.31625 -6.1640625 18.1875 C-10.46033032 24.3222608 -10.46033032 24.3222608 -12.69287109 27.12597656 C-14.21867657 28.93639174 -14.21867657 28.93639174 -14.015625 31.3203125 C-12.5895137 35.08305232 -10.30468302 37.80004211 -7.75 40.875 C3 54.05896226 3 54.05896226 3 59 C-1.1097118 58.4839403 -2.85949489 56.38767239 -5.625 53.4375 C-11.594097 47.27414245 -18.13945659 42.12191255 -25 37 C-20.36865885 24.17474758 -9.62901395 9.62901395 0 0 Z " fill="#282828" transform="translate(26,71)"/>
<path d="M0 0 C4 0 4 0 5.46484375 1.36328125 C5.95082031 2.00652344 6.43679688 2.64976563 6.9375 3.3125 C10.19449184 7.27753354 13.7647089 10.53447629 17.6875 13.8125 C18.24622803 14.28018799 18.80495605 14.74787598 19.38061523 15.22973633 C22.19769 17.56528147 25.04764279 19.83781138 28 22 C23.2094294 34.92072166 12.62005158 49.14531302 3 59 C2.01 59 1.02 59 0 59 C0.54178922 54.40769136 2.54479401 51.14087527 5.0625 47.375 C5.65889282 46.46500244 5.65889282 46.46500244 6.26733398 45.53662109 C9.99804711 39.89289226 13.94440542 34.41482655 18 29 C16.58717016 25.93700213 14.89960957 23.42294617 12.8125 20.77734375 C12.19632813 19.99166016 11.58015625 19.20597656 10.9453125 18.39648438 C10.30335938 17.58501953 9.66140625 16.77355469 9 15.9375 C7.72827944 14.32231275 6.4574099 12.70645499 5.1875 11.08984375 C4.62417969 10.37691162 4.06085937 9.66397949 3.48046875 8.92944336 C0 4.39346966 0 4.39346966 0 0 Z " fill="#282828" transform="translate(848,73)"/>
<path d="M0 0 C2.625 1.6875 2.625 1.6875 4.625 4.6875 C5.51639135 9.44471488 5.08291776 13.56243641 2.625 17.75 C-4.63447947 27.94158121 -14.90951361 36.13774142 -27.375 38.6875 C-27.375 37.6975 -27.375 36.7075 -27.375 35.6875 C-26.23224609 35.19443359 -26.23224609 35.19443359 -25.06640625 34.69140625 C-16.57795602 30.78099659 -8.6954834 25.85363408 -4.3125 17.25 C-3.1217105 12.72499991 -2.71998949 8.34062663 -3.375 3.6875 C-5.27291667 1.38958333 -5.27291667 1.38958333 -8.4375 1.25 C-12.97477024 1.75414114 -15.63166885 3.22347382 -19.45703125 5.59375 C-21.375 6.6875 -21.375 6.6875 -23.375 6.6875 C-22.375 3.6875 -22.375 3.6875 -20.15234375 2.30078125 C-12.88116825 -1.02975719 -7.7703246 -3.0217929 0 0 Z " fill="#2E2E2E" transform="translate(635.375,90.3125)"/>
<path d="M0 0 C2.625 1.6875 2.625 1.6875 4.625 4.6875 C5.51639135 9.44471488 5.08291776 13.56243641 2.625 17.75 C-4.63447947 27.94158121 -14.90951361 36.13774142 -27.375 38.6875 C-27.375 37.6975 -27.375 36.7075 -27.375 35.6875 C-26.23224609 35.19443359 -26.23224609 35.19443359 -25.06640625 34.69140625 C-16.57795602 30.78099659 -8.6954834 25.85363408 -4.3125 17.25 C-3.1217105 12.72499991 -2.71998949 8.34062663 -3.375 3.6875 C-5.27291667 1.38958333 -5.27291667 1.38958333 -8.4375 1.25 C-12.97477024 1.75414114 -15.63166885 3.22347382 -19.45703125 5.59375 C-21.375 6.6875 -21.375 6.6875 -23.375 6.6875 C-22.375 3.6875 -22.375 3.6875 -20.15234375 2.30078125 C-12.88116825 -1.02975719 -7.7703246 -3.0217929 0 0 Z " fill="#2E2E2E" transform="translate(280.375,90.3125)"/>
<path d="M0 0 C0.99 0.33 1.98 0.66 3 1 C-2.56067759 16.18722697 -14.54035703 39.67263935 -29 48 C-29.99 48 -30.98 48 -32 48 C-31.3125 45.625 -31.3125 45.625 -30 43 C-29.2575 42.71125 -28.515 42.4225 -27.75 42.125 C-14.73418886 36.80034999 -6.05284865 11.76063727 0 0 Z " fill="#343434" transform="translate(203,126)"/>
<path d="M0 0 C0.99 0 1.98 0 3 0 C4.27786205 7.80803895 4.11158147 15.61362681 4.0625 23.5 C4.05747533 24.90885258 4.05291413 26.31770689 4.04882812 27.7265625 C4.0371003 31.15108638 4.02068691 34.57552047 4 38 C3.67 38 3.34 38 3 38 C2.67 36.35 2.34 34.7 2 33 C1.67 33 1.34 33 1 33 C0.67 22.11 0.34 11.22 0 0 Z " fill="#505050" transform="translate(114,58)"/>
<path d="M0 0 C-0.33 0.99 -0.66 1.98 -1 3 C-2.09699219 2.65066406 -3.19398438 2.30132812 -4.32421875 1.94140625 C-5.77860238 1.48163336 -7.23303189 1.02200559 -8.6875 0.5625 C-9.40873047 0.33240234 -10.12996094 0.10230469 -10.87304688 -0.13476562 C-19.05423935 -2.71240161 -27.44589166 -4.6260949 -35.875 -1.9375 C-38.90279653 -1.02916104 -40.12687965 -0.85075186 -43 -2 C-28.74055685 -9.62714401 -14.3973793 -5.03908276 0 0 Z " fill="#454545" transform="translate(442,145)"/>
<path d="M0 0 C0.66 0 1.32 0 2 0 C-1.85876492 11.37426517 -14.13400489 21.26127241 -24.5625 26.5 C-26.36833374 27.34768225 -28.17857145 28.18636694 -30 29 C-29.00955322 26.43237438 -28.39077905 25.22469795 -25.96875 23.83203125 C-25.1540625 23.49558594 -24.339375 23.15914062 -23.5 22.8125 C-13.82390664 18.22541828 -7.47038003 10.86866197 -1.59375 2.08984375 C-1.0678125 1.40019531 -0.541875 0.71054688 0 0 Z " fill="#373737" transform="translate(647,130)"/>
<path d="M0 0 C0.66 0 1.32 0 2 0 C-1.85876492 11.37426517 -14.13400489 21.26127241 -24.5625 26.5 C-26.36833374 27.34768225 -28.17857145 28.18636694 -30 29 C-29.00955322 26.43237438 -28.39077905 25.22469795 -25.96875 23.83203125 C-25.1540625 23.49558594 -24.339375 23.15914062 -23.5 22.8125 C-13.82390664 18.22541828 -7.47038003 10.86866197 -1.59375 2.08984375 C-1.0678125 1.40019531 -0.541875 0.71054688 0 0 Z " fill="#373737" transform="translate(292,130)"/>
<path d="M0 0 C0.33 0.99 0.66 1.98 1 3 C-0.31298437 5.19855697 -1.65005665 7.15359646 -3.1875 9.1875 C-3.85241455 10.09169678 -3.85241455 10.09169678 -4.53076172 11.01416016 C-6.00941235 13.01793905 -7.50381509 15.00928563 -9 17 C-10.11361104 18.4932437 -11.2268866 19.98673763 -12.33984375 21.48046875 C-15.21392465 25.32993371 -18.10326907 29.1675553 -21 33 C-21 29.15421266 -19.75781672 27.7988916 -17.60546875 24.6328125 C-16.54295898 23.05693359 -16.54295898 23.05693359 -15.45898438 21.44921875 C-14.70210167 20.34095541 -13.94493762 19.23288416 -13.1875 18.125 C-11.72173728 15.96155983 -10.2568612 13.79751862 -8.79296875 11.6328125 C-8.1383667 10.67262207 -7.48376465 9.71243164 -6.80932617 8.72314453 C-5.61246902 6.92180265 -4.47005418 5.0829682 -3.38793945 3.21044922 C-2 1 -2 1 0 0 Z " fill="#424242" transform="translate(166,116)"/>
<path d="M0 0 C0.33 0.66 0.66 1.32 1 2 C-4.88697264 10.76827263 -12.87089124 18.45666708 -23 22 C-22.74609375 20.13671875 -22.74609375 20.13671875 -22 18 C-20.28515625 16.83203125 -20.28515625 16.83203125 -18.0625 15.8125 C-10.89110575 12.11779768 -4.64395621 6.60640222 0 0 Z " fill="#3D3D3D" transform="translate(98,95)"/>
<path d="M0 0 C10.93286835 -0.6277245 10.93286835 -0.6277245 15.1875 1.875 C18.36933222 5.60542398 18.08951786 8.1660357 18 13 C17.34 13 16.68 13 16 13 C15.01 10.03 14.02 7.06 13 4 C12.31292969 3.96261719 11.62585938 3.92523438 10.91796875 3.88671875 C10.01691406 3.82097656 9.11585938 3.75523438 8.1875 3.6875 C6.84751953 3.60048828 6.84751953 3.60048828 5.48046875 3.51171875 C2.69396 2.93686419 1.75864246 2.1793144 0 0 Z " fill="#4E4E4E" transform="translate(721,80)"/>
<path d="M0 0 C0.66 0.33 1.32 0.66 2 1 C1 4 1 4 -1.8125 5.6875 C-6.99580323 7.76949627 -12.51659261 7.24310673 -18 7 C-18 6.34 -18 5.68 -18 5 C-17.03578125 4.80664062 -16.0715625 4.61328125 -15.078125 4.4140625 C-13.81484375 4.15367187 -12.5515625 3.89328125 -11.25 3.625 C-9.99703125 3.36976563 -8.7440625 3.11453125 -7.453125 2.8515625 C-4.10898114 2.16122045 -4.10898114 2.16122045 -1.671875 0.8359375 C-1.12015625 0.56007812 -0.5684375 0.28421875 0 0 Z " fill="#333333" transform="translate(433,160)"/>
<path d="M0 0 C-1 2 -1 2 -3.66015625 2.89453125 C-4.78292969 3.19746094 -5.90570313 3.50039063 -7.0625 3.8125 C-12.14558683 5.28391987 -16.10877726 6.94898229 -20.31640625 10.14453125 C-22 11 -22 11 -24.21484375 10.63671875 C-24.80394531 10.42660156 -25.39304687 10.21648438 -26 10 C-18.16665412 4.90237795 -9.65001686 -0.45044962 0 0 Z " fill="#444444" transform="translate(94,40)"/>
<path d="M0 0 C-2.85399122 1.90266081 -5.22092796 2.88271039 -8.4375 4 C-11.7526035 5.15464829 -14.89574742 6.35614048 -18 8 C-18.66 7.01 -19.32 6.02 -20 5 C-13.04205107 1.35845663 -7.88950907 -0.64668107 0 0 Z " fill="#2C2C2C" transform="translate(727,81)"/>
<path d="M0 0 C0 0.99 0 1.98 0 3 C-1.87430574 4.87135872 -3.70700289 6.5222198 -5.75 8.1875 C-6.28882812 8.65091797 -6.82765625 9.11433594 -7.3828125 9.59179688 C-10.60252541 12.25787622 -11.67644515 13 -16 13 C-16 12.34 -16 11.68 -16 11 C-14.0234375 9.66796875 -14.0234375 9.66796875 -11.375 8.1875 C-7.18414686 5.76466303 -3.60157036 3.22245769 0 0 Z " fill="#464646" transform="translate(123,173)"/>
<path d="M0 0 C0.99 0.33 1.98 0.66 3 1 C-3.07439825 7.70459519 -3.07439825 7.70459519 -6.9375 8.9375 C-7.9584375 8.9684375 -7.9584375 8.9684375 -9 9 C-8.3125 6.625 -8.3125 6.625 -7 4 C-4.5 2.8125 -4.5 2.8125 -2 2 C-1.34 1.34 -0.68 0.68 0 0 Z " fill="#3E3E3E" transform="translate(180,165)"/>
<path d="M0 0 C0 0.33 0 0.66 0 1 C-1.175625 1.2475 -2.35125 1.495 -3.5625 1.75 C-7.91076739 2.81582753 -11.17733859 4.70640315 -15 7 C-15.66 7 -16.32 7 -17 7 C-16 4 -16 4 -13.671875 2.578125 C-12.70765625 2.13984375 -11.7434375 1.7015625 -10.75 1.25 C-9.79609375 0.80140625 -8.8421875 0.3528125 -7.859375 -0.109375 C-4.73610406 -1.0821971 -3.09472585 -0.92615883 0 0 Z " fill="#525252" transform="translate(629,90)"/>
<path d="M0 0 C0 0.33 0 0.66 0 1 C-1.175625 1.2475 -2.35125 1.495 -3.5625 1.75 C-7.91076739 2.81582753 -11.17733859 4.70640315 -15 7 C-15.66 7 -16.32 7 -17 7 C-16 4 -16 4 -13.671875 2.578125 C-12.70765625 2.13984375 -11.7434375 1.7015625 -10.75 1.25 C-9.79609375 0.80140625 -8.8421875 0.3528125 -7.859375 -0.109375 C-4.73610406 -1.0821971 -3.09472585 -0.92615883 0 0 Z " fill="#525252" transform="translate(274,90)"/>
<path d="M0 0 C0.66 0.33 1.32 0.66 2 1 C2 1.99 2 2.98 2 4 C-0.97 5.32 -3.94 6.64 -7 8 C-6.01347016 4.68167234 -5.31268497 3.23451373 -2.5 1.125 C-1.675 0.75375 -0.85 0.3825 0 0 Z " fill="#333333" transform="translate(333,94)"/>
<path d="M0 0 C1 3 1 3 -0.4375 6.1875 C-1.2109375 7.5796875 -1.2109375 7.5796875 -2 9 C-2.99 9 -3.98 9 -5 9 C-3.90931332 5.22454612 -3.0916909 2.52956528 0 0 Z " fill="#2B2B2B" transform="translate(209,118)"/>
<path d="M0 0 C0.66 0 1.32 0 2 0 C0.63312778 3.98671063 -1.15195093 6.88494633 -4 10 C-4.66 10 -5.32 10 -6 10 C-4.34643078 6.41726669 -2.32019297 3.19026533 0 0 Z " fill="#3D3D3D" transform="translate(647,130)"/>
<path d="M0 0 C0.66 0 1.32 0 2 0 C0.63312778 3.98671063 -1.15195093 6.88494633 -4 10 C-4.66 10 -5.32 10 -6 10 C-4.34643078 6.41726669 -2.32019297 3.19026533 0 0 Z " fill="#3D3D3D" transform="translate(292,130)"/>
<path d="M0 0 C0.66 0.33 1.32 0.66 2 1 C-2 7.57142857 -2 7.57142857 -6 9 C-4.68775452 5.06326356 -3.08089673 2.77280706 0 0 Z " fill="#414141" transform="translate(652,94)"/>
<path d="M0 0 C2.125 0.9375 2.125 0.9375 4 2 C2.9275 2.226875 1.855 2.45375 0.75 2.6875 C-3.41293906 4.14452867 -4.50911465 5.49430951 -7 9 C-7.66 9 -8.32 9 -9 9 C-7.27592413 4.61144323 -4.17026127 2.08513063 0 0 Z " fill="#545454" transform="translate(188,35)"/>
<path d="M0 0 C0 4.31618166 -2.13270348 5.92789659 -5 9 C-5.66 9 -6.32 9 -7 9 C-5.64978174 4.58110387 -3.73884332 2.65654657 0 0 Z " fill="#2F2F2F" transform="translate(306,117)"/>
<path d="M0 0 C0.66 0.33 1.32 0.66 2 1 C2 1.66 2 2.32 2 3 C-0.97 4.32 -3.94 5.64 -7 7 C-6 3 -6 3 -3.0625 1.1875 C-2.051875 0.795625 -1.04125 0.40375 0 0 Z " fill="#EDEDED" transform="translate(621,92)"/>
<path d="M0 0 C0.66 0.33 1.32 0.66 2 1 C2 1.66 2 2.32 2 3 C-0.97 4.32 -3.94 5.64 -7 7 C-6 3 -6 3 -3.0625 1.1875 C-2.051875 0.795625 -1.04125 0.40375 0 0 Z " fill="#EDEDED" transform="translate(266,92)"/>
<path d="M0 0 C0.99 0.33 1.98 0.66 3 1 C1.92598892 3.91517292 1.22189824 5.77810176 -1 8 C-1.66 8 -2.32 8 -3 8 C-1.125 2.25 -1.125 2.25 0 0 Z " fill="#3B3B3B" transform="translate(203,126)"/>
<path d="M0 0 C2.72869407 0.03287583 5.2966618 0.56397771 8 1 C8 1.66 8 2.32 8 3 C4.7 2.67 1.4 2.34 -2 2 C-1.34 1.34 -0.68 0.68 0 0 Z " fill="#4B4B4B" transform="translate(436,108)"/>
<path d="M0 0 C0.66 0.33 1.32 0.66 2 1 C2 1.66 2 2.32 2 3 C0.02 3.99 -1.96 4.98 -4 6 C-4.66 5.01 -5.32 4.02 -6 3 C-4.03533587 1.93224776 -2.03144641 0.93446535 0 0 Z " fill="#3A3A3A" transform="translate(713,83)"/>
<path d="M0 0 C4.455 0.99 4.455 0.99 9 2 C8.67 2.99 8.34 3.98 8 5 C1.125 2.25 1.125 2.25 0 0 Z " fill="#393939" transform="translate(433,143)"/>
<path d="M0 0 C0.99 0.33 1.98 0.66 3 1 C1.68 3.31 0.36 5.62 -1 8 C-1.66 7.67 -2.32 7.34 -3 7 C-1.125 1.125 -1.125 1.125 0 0 Z " fill="#3D3D3D" transform="translate(195,142)"/>
<path d="M0 0 C0.33 0.66 0.66 1.32 1 2 C-1.625 5.875 -1.625 5.875 -5 7 C-3.70700306 4.11562221 -2.34058637 2.12780579 0 0 Z " fill="#D3D3D3" transform="translate(309,116)"/>
<path d="M0 0 C0.66 0.33 1.32 0.66 2 1 C-3.75 6 -3.75 6 -6 6 C-6 5.34 -6 4.68 -6 4 C-4.03852126 2.61061923 -2.03833424 1.2739589 0 0 Z " fill="#353535" transform="translate(88,106)"/>
</svg>
